<mxfile host="Electron" modified="2024-01-26T11:10:59.240Z" agent="Mozilla/5.0 (Windows NT 10.0; Win64; x64) AppleWebKit/537.36 (KHTML, like Gecko) draw.io/21.2.8 Chrome/112.0.5615.165 Electron/24.2.0 Safari/537.36" etag="Z5YLj3F1R4ThZir2-Lzx" version="21.2.8" type="device">
  <diagram name="Page-1" id="2XWkQP5S-hDbL94sL5Vg">
    <mxGraphModel dx="1658" dy="820" grid="1" gridSize="10" guides="1" tooltips="1" connect="1" arrows="1" fold="1" page="1" pageScale="1" pageWidth="3300" pageHeight="4681" background="#999999" math="0" shadow="0">
      <root>
        <mxCell id="0" />
        <mxCell id="1" parent="0" />
        <mxCell id="OFI7zE9tUY9UPtECGpIP-1" value="Connect Signals to Methods" style="rounded=0;whiteSpace=wrap;html=1;fillColor=#dae8fc;strokeColor=#6c8ebf;fontSize=30;" parent="1" vertex="1">
          <mxGeometry x="600" y="70" width="850" height="120" as="geometry" />
        </mxCell>
        <mxCell id="hpjKEs1G1uGHY85BSDf7-1" value="" style="shape=image;verticalLabelPosition=bottom;labelBackgroundColor=default;verticalAlign=top;aspect=fixed;imageAspect=0;image=data:image/png,iVBORw0KGgoAAAANSUhEUgAABQsAAAGvCAYAAAD8AYMoAAAAAXNSR0IArs4c6QAAAARnQU1BAACxjwv8YQUAAAAJcEhZcwAADsMAAA7DAcdvqGQAAJrcSURBVHhe7f1fbBRZnuB9/2qqr5jqp1rKhMwb3ExfmIS2XdXdNaURNpSRmOme1ggYr9fiGc37aCWWBywhjUZ6rhAXvkBcrp6LkgAhWnrm0WgZ5LHA86d732GFARvt1nZvvwI3JClNCbF9gSGzq0vq6uq5qvecEyfSEZERmREn0pnp9PcjGdLhjIw4f+LP+eWJc96aeO/9r0QZGdknL1++0C8BAAAAAAAA7EC/Z/8HAAAAAAAAsMMRLAQAAAAAAABgECwEAAAAAAAAYBAsBAAAAAAAAGAQLAQAAAAAAABgECwEAAAAAAAAYBAsBAAAAAAAAGAQLAQAAAAAAABgECwEAAAAAAAAYBAsBAAAAAAAAGAQLAQAAAAAAABgECwEAAAAAAAAYBAsBAAAAAAAAGAQLAQAAAAAAABgECwEAAAAAAAAYBAsBAAAAAAAAGAQLAQAAAAAAABgECwEAAAAAAAAYBAsBAAAAAAAAGAQLAQAAAAAAABgECwEAAAAAAAAYBAsBAAAAAAAAGAQLAQAAAAAAABgECwEAAAAAAAAYBAsBAAAAAAAAGAQLAQAAAAAAABgvDXx3vtf6RcjI/vk5csXZiEAYJsqTcj0R0dk/2hRCnZRo7Yqt2/dlQ37+04zNndejqv8aNSW5Nqtx3YpAAAAACAOPQu3UumYnL24IBfmJuyCBOOn5EKa9yGkdPS8yrdTMmZ/B3Y8fc45MyOHAoFCrTA6Jafnt/ex4ny8qzyZVPmhFQp7pGReAQAAAACSECzcShuvpaH/Hz3YpoE7IbMnKur/qizT4yWDshyoFEUadXljlwA7W1mmZ6ZMkFD3oLtxaUEu258bd6pSq67IuvfGbSjH8b6xLs/Nibiu8mB9x/auBAAAAIC0CBZuqcdSren/K1IZNwtajM3NyKj6v3bn5jZuyPfDHimaqMhrGv+AVhqT/fqYsI/aBo+LjSc3ZfHeK/vbdpTneH8lK1d00PTjbZ4HAAAAANAbBAu32Pqzqvm/UCyb/0PGT8lxEylcksUn3iKkNH7QC7I+ozcmoJUOVkyvwqE8Jjjek/nDXVw8L9M8Yw0AAACgC5jgZMtNyOzFGRltrMqNK8EJBuxy/fjxpYRehaWyjH00a8bb0kEAo1GVR6srsvIkpoeMGa9sSgq1Jbkc+0hzWabnz8mhQpttOiiNH5PDUxUZLXjjgunH/Rq1qqzdvyvrHboBlcZPyUm1bqGZwLrU1h7Iw3vhnlEmv+aPBLbRTpfS55yfdnnDW8/Lnym1795fG6oM15bU+7N3kYqRskzbpaXH9UyPPXd6UuTR9Y9lRedBSZXtTKBs1baXu5Y/Sur0JZfn2Pge9f9rWQ+93x7DzXwIl7tZ7+i0TE56QTxNPx58W/2tO0lLe0xE0tOleu2SvpIq6wOpJl/JcbzrMWDN0A4RLefgBFmPh56Xe5Ctg/a3xtpVuUbvSQAAAAA50bNwy9lHkQsVORDo9dHp8WMdRDt75pyZwbPZYNXU5xw6cU7OHo3pqbjHe2/jzWvv9xb+o3xdHOdP7efpEzoQFmzUq/0YnZLjZ87L7HjMfho6GLCg1g0GCrWijE7OyOn5Y+GJCEp71PvSBA6UbqXPNT/t46AN9ffpufM2f+zflIIqQ5033ekF9EqeVevq/6IUEz+vbMeyq7aMi9mPerZ7ty7HutQ31Pb1pBVn1LEQLFu9bpeiKk7pixqfluMnZuT41FioTpaOHgn3dvPLXeeLDshdVNsNBIy0wuiMnEyzzTSyHBNBeeu1U/rKZkbi00mTr0R7xeU43kvF+PUaKcYrdKovvS73IJ1P9iUAAAAAdMvbpXJ5Qb94991vyOef/9osRHe9tWdMvjtSlF2/q8rPXvzGBNj+46Rq0NaW5Nq9mOar+vtfnajILvVS90j5z1f+Tn7yYEUePqhK7e13vM8a2SdvP/9EXnzhraKVvj2t/rZLfvnzf5SncXGA0rgc/t6I7PrlT+Unv+hGNKYs0//uB7J3V11qd/5Gri3+o9pHu5+fvSPfrIzI3krrfjZ7w+j11n4it/+LSt+P9Xrq5/mv5O19B2RvYUTe+WxlMx1ffCo/M5+tf34lpSMHpKB7Cv2nH9m8Cfz89FMJbc6Rc35+60P5fkWVkUrD3sJvTd7cVnlj9lOlr6TSV9i1S/Z+/VfysAvl8MXXvyWHVV4361fU+J/JX3ynKI21Rflx8O99qWdlOXjkA9n7ZVVW/+1DOf3HI962l/w6UJXPPnsh669j0pFV5vS9I/v+UO2bqpfPH6yLlzS/jquXX76UnzfrVln+8E+PqHSsyu1/sstsuX/5+/vkA91bVveQ/NtF+fsf6+NCpav8gQkq7frdy66Ue/pjwk+LJ2+9zp4+r+fdMZOJ3rmieTzo9VRZFEdGZP++r0nNz98cx/sXLz4J//2zsjo+isnp9TkeDz0v9yCVT/9W1sHKXWafb//Tv3bl3AcAAABgZ6NnYQ9sPK2aWZELu/WjjBMdZj/2/657HS5EJip4JRv3bsqNNa8n2f6D4Z4qzR5bSQ3ijj2KHKnG8cPQ43lqP5/clGuXrsqy/6hpgNerUqVf/W1RP24c/PvGY1lZWvXyK26cR83vTbPFk5u45mezZ5MObuhJFVTeNPdTpW/Rpk8Ke8K9J109eSqm86qpX1G2Pql9uR16PLFf9cz2WpOKnDxRVNu+6m27ufFXkUd9XbmnL8T0GqtLrabeWyjKbru42Zss0FvNL3fTI27tqly+clPWN/y0qHTdt+W+FTIcE3nrddb0lY7OyiHzgTHHg15PlcW160uyvJTwiHDO493b7zbpNdzrS1/LXVm/9bGZ8Tq8zwAAAADgjmBhL2ysy3PdWhw9KNP+o4tJjx/bv+uxp5ImPQkHH31l++hgVZ4ltBjHDniN4Ua9G8EY7ZXUzY5Mycm5CSm1RL5UQ7llXyakYgbY0o/i6kH5Y370eGrmvQlsMGNrJztwz08/GPMoKfix8brLwYPXthxag4/NR2VXw/vSt3rmB34KRWnc8QJHW8E9fWFjH6m6qNJajTxPbZarMn7+dHP/vXLXx3b7ceO6HqzXUn8RkLdeZ03fhBzWvaj1lwPtxgvceJw8RmWu470sBypq+23Sq+WpL30tdwAAAADYAgQLe8IfV64ih+zjx0kNUj/QFAxCpGJ7OiX3vrFBgo49bLJZv3VVlmt1MybXaRP8Oy+zRyeSe8zZWU3z8IIZ3U1HC+f8DCxvE5zoLj9oGx4XU4+fdjKhvvWtnvlBrTZBmW5wTl+IF9jWvQfDsUIb8K49CPSa9dNdlWpCANSfrbh7wfpN/jHRMb2563XG9PnB4drT2C9H0sh3vPvjL7bvleheX/pb7gAAAACwFQgW9ojfK0U3SB/dT+ohE2iot2vZxvUi6tizyG80t+9hk90r7zG461dleU2n0U5QYoKGrY93+o/s6Uf99KNz7X7ie+mkzKO8nPPTLm8XHNmCx6jXn1XVv0UpNjs9JU9q0s96ljqolYtr+mzQ1fJ6m1VlTdXDjboO9ls24B3u6eanO3lyHT8g1f0gd4ZjIm+9zpq+jtvrJOfxHltWUTmOh76WOwAAAABsDYKFvRbqjeSiLNNTrY8J+kG4pN4rJb9HXxcDVCEbduwxHei7viS1hg4azibO+Js4HmFHtnGeo6dSGs75aZe3C454j7B2CmBk9LruPSLp5+v4tBknrrG24phPW1HPcgZ+uio+fZvs46uheqZnnLbrNVblYbBnZMfjayvT3jlg5ctbr3ufvnzHu5febgTqEupLX8sdAAAAALbGDg0WTsjsvDc+3tmY3m9bwX8UrX2AyO/ZVJHKuFnQIjhZQDBY0a73SunoeTltB+937+ETpfJQj1NofwvRk3isRnu6efweWoXKWOKjyqXxcvJjzH6vvC3mmp+dgjF6xtXjJrqgH1s0S7rDjovp5etmQCs8qYmvX/UsfVArH/f0NZlga0wv4D2tE5tofrknH99bmPYMPVXz1uvM6fOD2JPTMuYtaVVqM2xBzuO9md62GeNeX/pa7n24jgEAAADYGXZksNDMxmtboO2CVt3UrpEe5D1OKjJ64rzMjgcagKpBPT2nGvNmsoCkyTOKcuijQMNbraMbk3odM5urkhjEysg8oqnHKZz39jOUh3q7thdOCztzr54U5fT8MRkLrFjy03jinBxOaLQ3jR6R6UD+eOuqz7O/d0f2/PTKWZefbsAHgyBlVe/Oy4XmjKvxE9y4swGPQlEO2MBGdFKToL7Usy14/DpJvvSJVPTj0jGPUhfVcv1ot340Oajj8W17oEWDjN2Q7ouIINd67ZA+f3Inqcjx+VPqeA+WhT0mzszIyU7BLqfj3e/VV5HJwOeXxidC5x3Ntb70s9z7cR0DAAAAsDO8NfHe+1/pFyMj++Tlyxdm4XAry/T8Oa+XiFZbksstY7p1m7/Nqixf6hwkGptbsL3P4qgG6/WPWx9lHj/VDESFee9/dlA3eCV+XUemJ5JpRCdQeXtD5W3L5hL31dNQ692OW8+IlF+EHguxKxNnOOWn3Tf1Hj12YyFhH/XkHu1mTXUVKo8U9brn9cyuu1Xpj3JJX3CdUF0Kprslbzsf337ZdK1+Bnj7nFBeUXnqtWv6SsfkbJsZzhu1VXW8JwW28x3vSeeouPWy15d+lnskX3pyHQMAAACwU+zAnoWvZGXVTjbSUI28xMlGusifgTTluFvrtxbkxh21j2YnrUZdamtLcuNSQkDgyU0zK/Gm8PubPWDiW+RONu7piU2W5JHabmhX9b7euRofKNTUvnrjGgb31wsaLF9fkGuJgUJNld+Vq2abQQ1dlmrdrjXInfLTf+TwgVxT+6jXD+WLn74tCpRtTqKj8iJF4KDX9azjI9pd5pS+puTHxFt78HV+1LRjDzRnGcfEy1WvHdO3cVeuXWo9HvT595E6T1xLDBRq+Y73jXuLsemNe/Q8e33pZ7n34ToGAAAAYMfYgT0LgS1ie1BJj3rOtej39gEAAAAAwLbHbMhAl/hjx/Wq51yIHndOP+qZOKkJAAAAAABAZwQLgS7ZukcOYwQmiiiN6x6FMzKqtp00YQcAAAAAAEAaBAuBrsg4dlwuZZmeOScXLi6Yn9MnvMkjanc6jcMHAAAAAADQHsFCoCs6T3awVbo+uQsAAAAAANixmOAEAAAAAAAAgEHPQgAAAAAAAADGjgkW6p6TAAAAAAAAAJLRsxAAAAAAAACAQbAQAAAAAAAAgEGwEAAAAAAAAIBBsBAAAAAAAACAQbAQAAAAAAAAgEGwEAAAYECUxo/J2flTMmZ/BwAAAHrtrYn33v9KvxgZ2ScvX74wC4fRsKcP6JrShEx/dET2jxalYBc1aqty+9Zd2bC/7zRjc+fluMqPRm1Jrt16bJcC6ZWOnpfTk0Wp3VmQxSd2IRDh1xNprMry0l1Z36kn3YFXVteFWZl8syjX7r2yy1yUZVp9ziF1fdlUleVLN2Xd/gYAANAP9CwEsKl0TM6emTENFz9QqBVGp+T0Nu/pohvhFy46pEHlyaRtyBUKe6RkXgFZlOVARdehutRfe0uAqLG5BRMo1F9K3LhCoHCw6QChuk5OnpPZcW9JdmWZnj8XCRQqjbq8sS8BAAD6hWAhAEs1XGamTJDQNFYvLchl+3PjTlVq1ZVt3NPBBmtcGmEb6/K8oV/UVR6s79jelchjjxTNgVWVZ1QgxNCBwuOjqoqsXTW9l6kmg2/91lV5pK4Noyccv0gbn5ZD9rywfH3zenv5ys7txQ8AAAYHwUIAntKY7NcNF/uobbCxsvHkpizmetSq3/xgzWuHRtgrWbmiG3Efb/M8QN+U9ng9dZ3qH4ad7vXcDBRyjtlG1LVhtar+r8jk0bK3KINS0ett/GjpJr1IAQDAwCFYCMAoHayYgEbt2RCOyTd+UFRbfDjThsG3x3usv/GGZ5ARUTomJ+0YhbcJFG4/T1ZM78JCZSzjEBV+b3d6GwMAgMHEBCfAjjUhs/NHZLQQGS+pRWSwdTOu4ZQUaktyOXayDzsOUyE6SLtd3vDXK8vY0WmZnPSClJp+/Pl2m0fwSqUJOZBq8pW0adMi+zl+Si6cqNhfAlRjXo8j1rFdV1Lp+mjWjHPo76NuED5aXZGVJ3HBgPz54sKbSEHk0fWPZUV/sMrb2ZlAnulH4xJ6vJRUHp2cUvvXTGBdamsP5OG9NmU3fkwOq3U2y6Su0lWVtftJY7OF88Vbf0qt7/21ofZvrV2PnJ6Xg3q/nvAgUjd1+t4c7NbkJknHVkS7YzRrvjgf75489SydpO2rdI7vUf+/lvVQutT2L87IaEt6kstvfY8+JxQ309CNcrC8x4/rgc+OE6ib98VMQGXGudPlpvJuRaWpZVnMZ/XmuPW4rpetHIJc13PLl6CWOp5KoEwT6gYAAEA/0bMQ2Kn0o5HNhlwGHXtJ+Y/8RsYHtI85m/V0I/riOTkeCMRohdEZORn7OJduCKoGWdLkKxfPy3SwW0eWtEX203s0rFUjxXiFutF59oxKV2QfpVCRQyfOydm4tOXKF3e7d+t01qWuEqUbuxdU3m427BW9Ay0J1kHYBTl9Itiw1ooyOjkjp+ePxfeuUfly+oQO9AXzVuWRKrvjZ87L7HibfFH1aVqXvVnf/k0pqDzV64bK3ep5Ofjvj6mbx8+cksNmcpOqVHPPgvxKnlXr6v+iFBO7MZXt2KNVWY4EIZzyxfV4t9zqWReMT8vxEzNyfCrc46t09EhrL+O25afq5wH95YGXBk++cmhS2500O/OgQ5DJ5rEclFl7DjRUue3/SJdpeNmhjya81009PG411/Uyl4PV4fhLXM81XyI26rYu6Nh0al6ZJh9XAAAA/fV2qVxe0C/effcb8vnnvzYLh9Gwpw/I7ItP5WcPVuSh+fmVlI4ckILuPfeffiQ/aS7XP+sSbM6Uvj0t3x3ZJb/8+T/K07h2TmlcDn9vRHb98qfyk18EWmff+lC+XynKl7+/Tz7QvTh0j6K/XZS///E/qm1U5bPyByZYs+t3L+VhcD3bA+PY3l3qdV1qd/5Gbi/+o91Htd7b70hxZET27/ua1H76qXyhV0mdNvXjr2N98eKT8N8/K5tgT2J6faqB/Feq0an3UvdA+89X/q65jzW1j98dKcqukX3y9vNP5EVwg875kkdZDh75QPZ+WZXVf/tQTv/xiLfPS2qff+zt82efvZD117+x79dsj6xdutfNT+T2f/Hfq36e/0re3ndA9hZG5J3PViL5pMrv3/1A9ur1VNldU2Xn5a3Kl8/ekW9WRmRvJTlfdqnP3Fv4bbjc1fZKanuFXbtk79d/Fc6XnpeDype//r7s1S9VHVv+2x+pdbx8qam6881KRaVd/03ldaSuufji699S9VEdX7+rys9eBMvHGv8z+YvvFKWxtig/Dv7dMV+cj3fDpZ5l9Y7s+0O1DVW/njfPVX6dUy+/fCk/b+Z7Wf7wT4+o/VmV2//kL+tUfrr+6b+Fy8+5HAJKH/5QJkd+K4+W/iFcF6P8PC4UTS/FG7rs7HlJL9sVWSaNZ4E62uPj1nk9t3IIrqd7Et5dijn+ktZzypcYb6l6rstHbSO2LsQZPyonVVl1vK4AAAD0CT0LAajGaPoJGJo9hZIaOAk9kfwee6bH39pVuXxFP3roPx74Stbvr4qZdDiidHRWvBkjV+WGnmTkyavAPqr17t2Ua9eXZHkp4RHhnJNL+IPQJ6bXUA3PE96jy/pR0/AEMWp/1T7eWPN6n+w/GO5V45ov+fg9lSpy8oR+PNbOwNrcabXdyCOpY3OqYa17SV3XE70E36tsPJaVJW8/C8WEXkOqIf0w9JkqX56osrt01XxmtGdVs4dnXLmr7S3a7UlhT6D3T+/LwcsXpbZkZjENPmJp0nen6q3XrclNnjyVmvqvsDuuG5NNv8qz8Ph37vnierx7stezrjC9ROtSq6k0qfLcbRc3e48GegmnKT8jWn5O5RCUYcw6m8fmWPDL7nXd1qvAMitYFr0+bpsyrudaDv56Ogh97VbyetGe4bnzxVlZ9CPaZ83x2I3exgAAAFuDYCGADg3+oLJ95DC5gTtmHvlSb6mHG8le0EEHK9rP+Bnehwk5rAf/1426duMFqsZd4jhYNm1uk5uka9D7jzbq2UyTxqTbeOoFjaLBBbd8yckPoBaK0rjjBeLam5CKacnrR38X5MLFmB89Npt5b9QrqZuET8nJuQkptTzX9yq27Pwg1aOkIPDGay9YEtDzcvAfI7UBmyTpjq20Xtv8DAZJPc1HbFfDeeaeL+7Hu5G5nnXH2EeqLqp9rkaeizbLVZ16/tTuR8ry01rPH9nLIcx/fLtzENkPZIc+zz+vBZb579ssi94ft07ruZZDYD09lmg74fqZJ18cmUel9WefM49o63pYu9NmvEsAAIA+I1gIwDb4A43oJLZnTnID1wYXWnoi+ct1T4r4bfizMYcadX6wofbUuVHlp619z8Ak6Rr0fmCrY/61cMyXvPzgcJvgUYidTdrV+q2rslyrix7z77RpnJ+X2aMTbcYDC9Sjdhkf0etyaC5rM55lawAnLz8YU5EDwQws2Vl1a0stZeqcL87Hu5W1nnWFFwjSZRKOFdoAUWB8wPTlF5e+7OUQYs9taYLIfvkF9yHuvOa9L9BbrefHrSfreq7l4Fx+OfPFiT0WfA1VD3t3TAAAAGRHsBDY8TIEZvzGf2ID1w+uRXsi+cvjJ0HQ4hrEnbfXiVvQqck2Ktv3Sky5jdi0OOZLTqmDw5Yf8NKPsF6+1P4nvlfeK1m/9bFcvn5Vltd0DzY7gYAJIsQ95mfzpV2QuOXx8t6Xg78sOR9tz9RgAKcL1p/pRyuDEyqU20ymkSNfnI93T9Z65sYG7SyvV19V1lQ99CaesGKO5fTlF5932cohXucgst8LLrgPcWVq3xeow70/bn3Z1nMtB9f18udLhH+ctCvLJze9z1R58qgmJpA6O27/BgAAMIAIFgI7XudAic9vZCU1ikp+j41oT6Sk5U05g3qJUgSd2ojtleKkLNNTOnASybu+5Iv7Z+Yev2vjlTfGpGk0L0mtoYMIs60zGtt8aRck9h4pDQd/Out1OaQ/tjKx49U1y2N82ozr2VhbceyBG58vzse7sVXHdDs2OBQ63vWMxTZ9jVV5mClo26H88pSDDTB1FNu7Oua81hI839Sz4zbKdb0WjsdRs2ds/HrdGo/QC4qn/EJA5cmKGf+0G9cVAACArUOwcChNyOy8fvRnQc62/fYfUNo0MqPielf5SkfPy2k7iUI0yNPsyZEY2EloDPqN8clpGfOWtCq1eSzOT5ujZnrbZozfs6kilYSeIsFJWoLBCud8ySX7Z/o9tAqVseRHCcfLMX9T5yI9bpn9LURPUrIa7Znl6RSk0jP7HjdRqmADvV/l0Lr/nvLmpA0pjq1MNtbluUqrVx6bgbD4yTTc88X1ePdsRd3twATr6vLofqQc97RObLIpR/llKoeIaKAxSVzvzrhgesz7en3cuq+nuZZD66Q8hroueL08lch67vkSp7VHZzq9DKIDAABkR7BwCJkba3OH3P5mGND8cZ/S99AqyqGPAg1C1SjTwenTk0Vv9lElGuRpF3Qw/MZvtDFvG+NmIPr5UzJWCjQK1euxufNy4cyMnOwUFB89ItOq8ecr6Ybk3LHkAKTh94yqyGTg80vjE2o/7C+W9zii2syJ8zIb2I5psKp91Hmj0x+drMM5X/LIEBxusjO/6kkLTs+rfAuk38tLHTg6J4cjwSjzSKget2zey5dQtul6Y3uzRXn5ovNTf+ERDD7YMm/O7BueIKDX5fDmjVffR0/oumleGnq209n5czagqdaLDabl4Y+XV5QDNtDXbjIN13zxZD/eDZd6llNF9/CKeSS6qJbrR4P1o8lB+csvWzm4iAucp13W6+PWdT3XcvDrdWHynDlP6OuDn66z6rpgAuBKy7XNMV9i2XNDlnI319xeBtEBAAAcvDXx3vtf6RcjI/vk5csXZuEwGvb0bSrLtLq59m+S9SDrl1OOnYSdaWxuQTXG6vLo+sfNgf8TjZ9qBmrCvPWfHdSBB4l8ll8nq7J8KX72R9NLSQcf7iy0DvquZ5FsMzNlo6ZnwkxqqEWOh4jY7QX4+xUVt56Xj/aXFnH5mzNfXNky1JNOpBqPy5dY9p6GOtfoGUmj5ZCUh01qPT0D6uZ6Nl9UnumxzgoJZZe0/70thwmZvWh7PUU11OdVi3K85XjojlC+pjjPZ88Xxel4t1zrmYNg2kJlFNz/2DzKX35Zy2GTX89X5Uabmd7jzs/esmB9bVOHe3bcetzWcy+HpHqtrwtrbyrJ5eeYL2F2vxvtyzDMK6v91a0/LgAAAPKgZ+HQeSUrq3pAcUXfZEcfxwJCMo4r9uSmmeVyU11qa6rxd8lrjDV7aIU+q/PjiG17dm3clWuXvNk1Tb32qfr96I5qcCUGCjV1PFzRA8oH91mtqo+N650DcBv3FmPTGzfu2fqtBblxRx17wZ1UaQ7mT1jOfHHU8RHfJHqAfjPuWCQvVaNc5+W1hIb1xj090cGSKYNQ1ui8UeXXGjjw8+WBXFNlFy335vYSGtq9LYfHsmjT1uSn68pN+3kpj62MNp7a83zKyTSy54vidLx7nOtZLsnjxsX3nM5fflnLYZPfKzEym3JI3PnZLgvV1zZ1uGfHrcdtPfdy8Or1qunlarZh0qWvC+tSbDM5jWu+BHmT6ai6lak3qS6rrZ70BwAAID96FgIABoftSSo96JG2rZFPgyFPOfi9pjP1SEQ6Lr3+MvB7JmYtO7OeJPZiBgAAGBQECwEAAyP5kd/tr+MjmiHV5ICCHv/tzBYGQnqsa/nSa10oh7jHjJGfX6e24jH40vgpb3Ifh3Jvnt/Ufi0S5AcAAAOMx5ABAANjKx69HhRe2hwEJvbRkz7oyRtGVR7FT0iy/TjnS69tQTms318VPTbnoTOnOky4hBDdK/PieZkNTYCk+BOUmOBz66Q2eZlgn2OgUPNnYh6dPCcXLi7YH8oeAAAMHnoWAgAGROfJRnYeP0/sr9Yw9rwcbFtYDuOn5OxUXdaW7so6vQvT8R/htr+26nZvzc3yTzf5SRI9o/usHB8NBsg53wEAgMFDsBAAMCC2eJyxbSkcpNKT86wt3SSo1HOUw+DxAm+To8XNoKGe5KT6QB7ecw3mJSsdPSWH6yuy+ITHhwEAwPAjWAgAAAAAAADAYMxCAAAAAAAAAAbBwiGhe04OM9K3vQ17+gAAAAAAGBYECwEAAAAAAAAYBAsBAAAAAAAAGAQLAQAAAAAAABgECwEAAAAAAAAYBAsBAAAAAAAAGAQLAQAYIqXxY3J2/pSM2d8BAAAAIIu3Jt57/yv9YmRkn7x8+cIsHEakb3sjfdvbsKcPHYyfkgsnKvaXTbU7C7L4xP4yCLbLfrZROnpeTk8WRRqrsrx0V9Y37B+aJmT24oyMqleNtaty7d4rs7S5nlRl+dJNWTdL0S9+ebSre2Nz5+X4aFEatSW5duuxXQpgkHHcxtv6fCnL9Pw5OVTgGodBxf0Zsiir8+asTL5ZbNaVrUDPQgDAlioV9U1OVFWqAxaA2y77mWRsbsHcUOrG1o0rcYFCpbRHCvZlo755c7F7t017oy5vvFebSsfk7MUFuRDzo3swTo+X7RvRHWU5UNHlUZf6a29JC1Umk6phrRUKe6RkXgGDoVSakOm586Hzxtm5iaGpp7rxfuGiQ+9tjtt4jvmSrRz2SFFf/OKuccAgcLk/ww6m60hRCpPnZHbcW7IVCBYCALbUxr2P5fKlBftzVR411MIBvOnZLvsZRwcKj4+q3dXfRt96LHFxQmOPurEwL4JB0LLXiFIa1fXWdZvrtCoUKnLoxDk5e5SAYff4jdqqPEsqyI11ea7rp9SlFldmQF/ong7n5fSZGTk0Gj5vFEZn5PT8sSEIkNlgvsu1geM2nlO+ZCwHPxDTeE2+YzC53J9hR1u/5bVVRk9s3dBDBAsBAD3kB0IG/YZ9u+yn17uiGSjs8ChCs/dkqIFl06oEv832+evoR2I3g6nq5/pVWV6rm78VJqcZI7FbUjVqX8nKFV0OH8viFj5+AqTnPeapHyU1QZ87V+VG4MuX5Zo6VxSm5OS2/2Ihz7WB4zaeS75kK4fSwYo5r9ae8eg3BpPL/VlQ6egpxqvecdS5c7Wq/q/I5BZdWwkWAgB6Z/ygGY9l4G/Yt8t+lo7JSTtG4e0Mjc/4b6jjH7n2HoGJeSR245Ws31v0emBKUYo8U9cdtndB403SM8hAjzSHIDgv0x2O77E5PR6ceqHORTd00OfJq8A5Rp0rbi3K8tpSpvPUQNou14Zhl7EcEq9jQCcZzoPdkOX+LEzdO9jAInaQJyvmPrxQGduSnvtMcDIkSN/2RvqGix6v6cBHR2R/4DGsRm1Vbt+6m/wNeKksYx/NmnF7mtf6RlUera7Iimp0tbKDdTeW5LIZDFytf3RaJie9b881PXbd7YRHUvWMuYenKjJasN9kqpvoRq0qa/cTxrrzZd7PMG+gZpFH1z+WlXbbCSiNn5KTal83b4LqUlt7IA/vtXncNqfM++mcL/qxvfB6uq6YctijJ1wptt0H7/Hjeur9jH2/vhE+MyUFVV+8uhTUeVD4TvvgUn7Z62f4ePDWn1Lre39tqLJYW1L7n7jB3h5/7cr9zcGYyU0SJt8xgZkrbc4rW7ifaepnZlnLoW3d1drX35bjXJ27Z2eObNY7te3ldvWmo6Ttq3SO71H/v5b1ULrsAPct6clSDu3T3NQx7zYH29fa9lxu1s8O20yQpxxcrw/p11P7Mh/Yl7Yi6R/a4zZnvXbKlxzl0LK/WfMzi0DZ3ReZVveC+pF8cx5TdXhFpaNlWcxGe3Pd9DjfD+p8dKpn7vWz9/eDGc6DOWW/PwvzzqN1p3NwZ9TrQa7XXtlna1ulRc9CAOgafaFQJ+zY8Zqm5HTCt5L6InH2jPf4VnAdaTceXGlM9qs3m95H5ltPtX7gxlfTY0TFPvKltnf6hA6k+BdQTW1b7ePxM+dlNmHCCqf9jGh+u5/qYqYbBwtqX4MXUK0oo5NbO/5Vlv10zhe/3GLqyvEzp2T2gG5MtdkHtf6k6VrxINvNgbqRixsLL7aHhq1nUnsaf/Pp70PsZzqWn0v99I8H2WMmVvDWt39T9NiKet2BOP46lPthM7lJuBdB/OQ7Ots7jGG0hfvZsX5m5FQOHXth+o8qxo9rFjzO9c32BXXuDtU7vW6X0hcyPi3HT8zI8alwT4DS0SOtvaXaloM6HlrK4ZU8q+rhAdr19lUNvxnVANVBlaQGaGCw/U7GzD6o/b7j1kh1KwfX60PG9XQ+hM5FbUTq2U44bkNS1munfMlRDqHzQNb8zMx/bPSgzNp7QUOdx/Z/pM9x4WWHPprwXjf18Lqpua6X+bxkOdfPPt0PZjgPdkWW+7Oeol4Pcr3eqNtrvv6upsveLpXLC/rFu+9+Qz7//Ndm4TAifdsb6dvehj19Hu9bt2N7d6nXddVo+hu5vfiP8pMHK/LwQVU+e/sdKY6MyP59X5PaTz+VL7yVzAXtr9RFQq+lv9n+z1f+rrlOTa3z3ZGi7BrZJ28//0ReNFdSvvWhfL9SlC9/f598oL+NUjcYy3+7KH//43/0tlf+wDQ2dv3upTz8RfDqpPbz3/1A9u7y9vGa2seH/vY+e0e+WRmRvZWY7bnuZ8iEHPnzA1KoPZC/D+1THHUB1d/m6v1c+4nc/i9qez/W21M/z38lb+87IHsLI/LOZyvyNClO4CzDfjrni0rfX39f9qpX+pvHu0s/UmXnpa/2WVmVQ0WlT/+xKqvB+hJQ+vCHMjnyW3m09A9t8jyoLAePfCC7qv8s91/8xi5TTF2qy9riurRkpa1njep9+VlwHd0D7MM/kz8/+V1zY1T7lx/J/wit7Fp+jvXT7ucu9Zl7C78NH39qeyW1vcKuXbL3678KHw89P/42y133oln+25hyNzsTLvcvXnxi88H+qPfqoOIvf/6P7et/F/bTtX5m4lgOpW9Pq7/tSs6H0rgc/t6I7PrlT+UnLceydzzs/VKl4d8+lNN/POJte8mvqyp/Pnsh668D9T6zd2TfH6ptqPr8/IF/fPl1XL388qX8vJl/ZfnDPz2i9mdVbv+Tv6xTfdH1Xf8tUl++/i1VP1S6f1cNH7e+8T+Tv/iOOq7XFuXHcX/XvvhU/q2sg1a7TL7c/qd/TShne76Uavw5pCOXcnA9vzisp/LhZ6Yu6h91Ljmi0qp7wP2nH9k6GviJHAvDe9zmq9dO+ZKjHPzzwJdf7pJKMz8/tnnTLj8d+OecQtH0Bruhz2U2fXrZrsgyaTwLbNO1XjteN53XczsvuddP13zpgtTnwbwc7s8i3vmDD9X18LeBY7KLqNeDXa/fUvVHl4/aRuw1Pwd6FgJAF5SOzkrb8Zru3ZRr15dkeSn4iI26UKgGsqYfOQzPYqvWV+vcMBNIFGX/wfC3YP438+ab9rWrcvnKTVnf8B+NUNu7vypmKLkk6oLyMPSYkNreE7WPeiD6lm7s7vsZYr+hTe4FtGlsTl1Ada8XtS+Luht+cH82HsvKkpe+QrHN9lyl3k/3fPHSp7ahbrCu3Qo/EmHK4Y4esFgXU1JPC38myDYz5rbwBpFveYRGbe9ywmMrzXo2eU4umDF77I/uAWZ6ZuibnKubj8taucsvU/3c3M/Y409tb9FuTwp7At/S9v7488tdVLlfvhJf7ma9DoP2e9uvdxx/K+9+utfPLNzLoeM4ZG17Hvo9JSpy8oR+7NvOJN7cuMqfUB3sEtNrTB03ZsKPouy2i5u9yQJ5mqa+GNH68uSp1NR/hd1x3QxsfqtjpdP4geu3vBniw2USYceOS+x93FH2cnA9v+Q+L/m9jJwmNxm24zYiQ72OSpsvTRnLwZ/cJJyf3t/a5acTf0ZbfS3yj5vXde/zg8us4Lkpd/3MeN1syrie63nJtX7mzpecUp0Hc8t6f1aW6fnAPZn60cOX6PPo8cAy/TM77q2RC/V66Op1WgQLASC3CTlsLtLqpJ843o6iTv7Bi4j/aI4eAyUabPFtPPWCB9FGn9dI1o3r9uOntDaSX0ndfOCUnJybkFJL/3Z14xxJQJ79DPEb7h1mdNP5WTFXbP3oaPimp/mjx3Ax790CKffTOV9K/qO7ehzL9o+WJO+D/1iVW6M1Lb+etdJBwiW5YW5yovuYp/yy10/NDxo9CgXjAzZem3II6vnxFyh3fWOdxBRrbHDLlz5QnHc/3etneu7lULbHQHI++I/Hxu6nH3AoFKVxR9XjSEBqq4x9pOq+2udq5Llos1zV4edP7X6krC9a6yNqr+1xFAyOe/z8rq22GzMvPT+w1VpnJ2S25diPmakzczm4nl+6cF2x1wa3RwKH67iNSl2vWzh88ZWxHDbzMyYYE9D+vJuOfzyEji9/fwPLmsdNsyx6f910Ws/1vORcP/t8PwiDer1pp9VrgoUAkJff2MnYs8IPcCTfRCexjWTR45rFr+t/kx7XKFi/dVWWa3XRY/ScNhep8zJ7VF1Q7d+j3PczzGu4p5jRze+p0idp99M1X5plk6enha1z3WjcJNusZ8uXFsw365ev2x4YqmFnBl6OS0DO8staPzf3U+VXUobG6PXxl77cw+u1Shso3ur9zNATqA3ncrA9lpLzIVAv4vbT/1KgTZCy+7wGgs7bcEzFNhwC44/mKwe/sVSRA8EDRzVszOzptaWup7mlzvrXxaC4a2TWcnA9v3ThuuJdG1zr/XAdt2Hp63Wr7F98ZSuHYH6aBS3i8tOVfz4L7lvc/nrvC+xTz6+bnqzrudYz5/rZ5/vBweX1RDT3ZfbH64EfuF+zP90411Ovd269JlgIAHn5jZ1MgZtAQ7bdHXLsZ/s31/GD9mtxF/ZNr9SF9GO5fF1dTNd0jx07kK65mEa7u+fZzyD7OW322eddWFX74k74hifup10vATdp99M9X/yySQ6O2J4WnT5b6UbjJpmtZ8EG/sZdWTPPN0aCEAH5yy9L/dRi9jPKD1w0G6S9P/7Sl3tyo9awN5mde9Vs9X52rp+d5SiHjuccP/3xPZb8hk72YHEWNmhneb36qrKm6r03ILkVU6Z5y2H9mX70KTjgebnzpCY5tDwqpc4V1/xj3X7JEFdWWcvB9fyS/7yUsq4mGarj1r1et0idL76s5eCWn2783kLBfYvbX/u+wD71/rrpy7aeaz1zXa+/94PwUK8Hvl7790Nb0CYgWAgAA0s17qZ0QypyAbA316l61MS/wbOhLqb39Pgd6oJ0fUlqDX0xnY2dMba9hP0M8W/Y0/ce6M84Hdn3M1mafInR7DGV3Ljxbwy2lK1n0Qa+H4Rone0uLHf5pa2fCfsZ5D0Kl6VBqm3x8deic6NW824y1Wd3athu1X6mqZ9dFV8O/s120rFVapt+1zLKwzYaQkFtPWOxTV9jVR5m6gHSob7Y8aSax+H4tBlXt7G2kqkHfCd+cMhtCAr3cnA9v7ifl2x+Z3yCwDe8x22+ep06X5oylkPLF0VRXTwXxD5lErO/bfapZ9fNqK7dD6a7jrXoUD9z5wvcUa+Vwa7X3pduHb5odkSwEADy8htlk9Ot4zH5StHu7/438xWpJAw+HJw0JXiz3fxGKjHwkXRRm5BZPX6H/S1k47EsrkZ7omju+xmSIqDjazY+K2PJjwyMlzs8hqDSagd/Ptv228eI1PuZN18SJoNR9cTr/aMkNm6UaCBgCyQGY+zkCTJ6MLa+u5efS/1ss5++8VNy3LS+gzdS/Tj+tNb995Q3B9duV+5KsxdMh4Zt3v3MVT9Tcy+HZj7EHKqlo+fltJ00Jf5Ydrzxz8ME6+ry6H6kPPZ4jYn4x5hy1JeNdXmu8tY7DjcDN50mNfGo98+d986f6phsyx/kfvRIYgMsuSGTvRxczy+5ryt+Q9jRcB23AU71elPafGnKWA7+Y4Ju+ZlRXG/nuHuKmPf1+rrpvp7mel7KXj+7cz/oyvE+cthQrwe8Xrf26OwmgoUAkJdtlOkG7/H5UzJWClw01Osx3eg6MyMnIzcbXg8t1cY6cV5m1UWhSV9g1DrezGatkza0ayQb/kU8cpNuHhXS43fMe9sLXYTUNmdt750o1/2Moy+MY/6Gdd4EP8/nB6MKU2pfj22+Xyn52zxxTg4nBBc0c2E3V+j2F+MkafbTNV/89fQMw2ePTpj64qfrrKonJjCiJDdueiO5nj2WqimghACPY/m51k9vP3U56Bv64E2iPfaaM+2GZxTs9fH35o13czh6Qp8jzEujNH5MNUjO2YCmWi94893C7wVTkcnA+aQ0ruuR/cVy3c9e18985xevh2sz6bqeqMadXsfMyqrEBpHb9IDYKhUdMIt5JLqolutHg/UjnEH564sNxBaKcsAGXNNOamICtKPecVVoEwQ0/KEJdFmciZShqq+l8VN2APiYhoxLObheH7pwXTF0fgTS6K2rPs/+Hm/4jltf1nodlj5fWqQsB9f8dBH3xVXaZb2+brqu53pecq6f3TpuHeS9j+y9ujRMW6S7qNcDXq/tOSzt9T2rtybee/8r/WJkZJ+8fPnCLBxGpG97I33b27CnzygdUxcG+w1SjEZNz5TVeiIfm1toXoRaqQZyy/T+ZZlWF65DBT2IcTj44SvpXjW6sXyndWBj/2+JaktmJrD8+xmlLtIX7TdzQY1VuRE3g7RqYPpBnjgNtZ965rH4Tfp5ZH9V772ceoyubPvpmi9J6+l6svamIscnpUOe2jRKQv7l1qGe+eXT5fLLXj/9fNC9m4pSSDgA9eQJceO+9Pb4S6hbmmpsL1eLKco9OY/C28uzn92on9k4HUeJdcx7/7ODOn0J+2nXTaoX3RRMWyivg/sfe47KX19CdSXDeTBcx9Kc3/36Zn+NEZvXruXgeH5xXs9on8a44yho2I5b93odli5fgrKUQ778zMrLk/Dx4i0Lbr/NPjnWz6Q8bFLrxd3Xua3nfl5yrp+5jltXkXqWoi4PK+r1INdru99J9+Jd8HapXF7QL9599xvy+ee/NguHEenb3kjf9jbs6TO++FR+9qAqn5X3SbGwS3bZxfoi8+hfFuXv7z2WL+yioNe/WJHaZ2X55u6i7PJXatSl9vOfyO2/+Qf5RctK35IPfnBACupzV3/6aexn/sGHP5T9hbo8f/iJvIi84YsXn8jD57+St7++W3YF9rOhtvnLf/kbuX3vX2MvNtn3M2pDnj7/mpT2jYjarNFQafj/rX4iv3j9G29B0Ot1s5+lfbvV+5u5aS6+d5d+JD/+ZCM27Z7fyIt/K8vBitpXfZH/yX+V1x33z5dtP13zxVvva/LO7+mVfiu//OX/lLWlf1bpei0H//SI7N31Un7+43VJ6gyh0/jOt6Zl/95d8rvnreWcX4d69roub3/7A9mrMil2+47ll71+2v385U/k//5/7rccf83trcfUMaW3x5+uW17adL4Zels6Xf/03+S3f/ChfHek3qHcdR69NOnc73+GqM9Y+4k8/O/BPM13nshfP7NxOo5UHfusrB91DOeD/34vffH7Wfr2tMrrXfLLn/+jPO1WIhLsUdsyYxbpXlaLgX0pjclhM/C5arus/l3MfuSvL198+b/Jwe+NqONBnQevqPOgXd7J5npamrJW59yfVlUZvhMuQ1Umjdr/TDwGncvB9fqQ97qi0vi2Ovaa5aHo68Pdv1UNwU/tggTDdty61+uwdPkSlKUc8uVnNuqe44i6Joby2C77Mrj9NvvUs+umx2099/OSc/3Mddy6ynMfOUyo14Ncr0tH/738sbqG1v7lR/I/WjbQHfQsHBKkb3sjfQA8Gb4l9Huz7uBvvP08kB70EIO29d9io4tyHR+2p8iW9V5G73DcYpBRPzGMtrhe+z0Tt7gNwJiFAAAMCDPeivo/1fhJ/lhhncYUG2L+4PWhMXKwZTLVT/SXHp9Jf5mgGirpJjWJsLMnb9U4SOgdjlsMMuonhtFW1ms9FrAJFOpA5BZ3FiBYCABAr+iePhfPy2xoIg7FH9DYjLPSaVD4Tev3V81YfYfOnOowwP5w6jh4PbLpcv1ED5WCE0ToHoUzqqFSlzQTT7XQ9cD2WMg7jht6gOMWg4z6iWHUp3ptxmT0A4U96InLY8hDgvRtb6QP2CH0zUWbiXB04Ct2IOR2xk/J2am6rC3dlfUd9bV858HrkdFW1E/0QGQwfiv7pA1lGTs6LZOTXqDw2k4d3mC74bjFIKN+Yhj1vF5vXue3ZlKfeExwMiRI3/ZG+oAdInEinHqGyWIiXq/Lz3766Q4cfLvz4PXIaCvqJ3rgHdn3h3oQeu+3tJNuRI3N/QeZHPmtrKl19eDq2CY4bjHIqJ8YRj2v17+RL79elnd+vij/771/7dk9Lz0LhwTp295IHwAAAAAAGASMWQgAAAAAAADAIFgIAAAAAAAAwCBYCGDL8QgyAAAAAADbA8FCAAAAAAAAAAbBQgAAAAAAAAAGwUIAAAAAAAAABsFCAAAAAAAAAAbBQgAAAAAAAAAGwUIAPTU2tyAXLm7+nJ0/JmP2bwAAAAAAoL8IFgLoobIUC/alVShMyfG5CfsbAAAAAADoJ4KFAHrolaxcWZDLl+zP9VVp2L8AAAAAAID+I1gIoH821uV5Q6Tx5rVdAAAAAAAA+olgIYD+KY3J/kJdnj99ZRcAAAAAAIB+IlgIoH/2FKXQqMqzDfs7AAAAAADoK4KFAPpm7EBFGtV1IVYIAAAAAMBgIFgIoE8mpDIq0qjzCDIAAAAAAIOCYCGA/ijtkYL6b3TqlIyVvEUAAAAAAKC/CBYC6I+Nu3L7TlUahYocP7MgFy4uyNmjZftHAAAAAADQDwQLAfTJhByeqpjehT4eSQYAAAAAoL8IFgLoi7G5GRktiDTWluTG9QW5fGlBFp/YPwIAAAAAgL4gWAigD+zkJmtX5dq9x7LBdMgAAAAAAAwEgoUAes9ObsJjxwAAAAAADBaChQB6b09RClKX+mv7OwAAAAAAGAgECwH0XKlYVP/Wpc7jxwAAAAAADBSChQB6bvfuon4GWd7Y3wEAAAAAwGAgWAigx7zJTaTxWuhYCAAAAADAYCFYCKB3ShMyPT8jJlb4hgELAQAAAAAYNAQLAWypsbkFuXDR/pyZkUN6GmSpyto9ZkIGAAAAAGDQECwE0FON2qosX78p6/Z3AAAAAAAwON6aeO/9r/SLkZF98vLlC7NwGJG+7Y30AQAAAAAAbD16FgIAAAAAAAAwCBYCAAAAAAAAMAgWAgAAAAAAADB2zJiFAAAAAAAAANqjZyEAAAAAAAAAg2AhAAAAAAAAAINgIQAAAAAAAACDYCEAAAAAAAAAg2AhAAAAAAAAAINgIbZc6eh5uXBxQWbH7YJtpSzT8wtq/0/JmF0CYHsZm/POQWfnJuwSAAAAAEASgoVbqXRMzqoG6oVODdTxU6Yh2/F921JZDlSK6v+61F97S/rNC16mDf7tkWJB/deoyxtvAbokWzlgp3OuL+o8PDmqz0EihcIeKZlXAAAAAIAkBAu30sZraej/Rw+2aeBOyOyJivq/Ksu3HnuLhoofbKvKsw1vSX/Z4GXa4F9pj+jdl8ZrGYjdHxoZywE7XI76srEuz82JuC616jrHMQAAAAB0QLBwSz2Wak3/X5FKwiO4Y3MzMqr+r925KeveouEycME2P3iZbn9KBytm/2vPhjGQ20/ZygE7XZ768kpWrizI5Usfy+K9V3YZAAAAACAJwcIttv6sav4vFMvm/5DxU3LcRAqXZPGJt2jo7CmaYFvjzYA8gzx+0AvOpgz+7d49WI9QD42M5YAdjvqSzB/u4uJ5meYZawAAAABd8NbEe+9/pV+MjOyTly9fmIXopgmZvTgjo41VuXHlbqBXjF2uHz++lNCrsFSWsY9mzXhbOuBmNKryaHVFVp7E9JDRjcYzU1KoLcnl2Eea9WQd5+RQoc02naj9nAvvZ6O2Kmv378qbg+fl9GRRancWWgOiWdPnROXz/BEZLXhjlrUXzZdofqn9PTotk5Neb0OtofL6tsrrpN5OpfFTcnJKvb+ZwLrU1h7Iw3vJ6+RRKk3IgY+OyP5IWdy+Fax7Vs76Uho/JodV2jbztq62VTXlvt6ysTzlYGWqL3bfGypt90WmVZ4cUuuZ9y/dlBW1Py3LulggmcrBl/l4CKTRlF/a+um63ibXep0+X3LUFz0GrBnaIaLlHJygZ+XQDf51xNNYuyrX6D0JAAAAIKe3S+Xygn7x7rvfkM8//7VZiG7akN8rT8v+vbvkd88/kRdfeEvH5ublkGpJ1u58LCsxvdZ0Y/wv/+IH8p3CLtlllxm7irK38oEcfLsqP3vxG7vQ+taH8v1KUbVr77f+zfiWfPCDA1JQDd/Vn34qdlfy0QGnv55p2c9dhRHZ/72yvPP7I1LYVZW1xXUJJtMpfS5K4yagFdpGkpZ8CeTX//qW/KVO50gxks4D8s3YfdXBjnn54++o94cTKIWRA/Ldb39Nat0qA6Os6tR/kP/9T74ne2PK4rtHxuTtQP0z8tQXVX5/deK7qmxDW7LlPialz17K09eBz8xVDi71xd/3t6T0J4flfbWeod6/6+tl+UAt2x9Ytvfrv5KHv+hGKMehHBSn46H0R/L9qRH5Upffl3/kHYdp6qfreoZrvc6YLznqS+nb0/LdkdY1Gz//Z7kfW8839bQcukHn0/dGmtv68n/9tPvbAAAAALDj0LOwB/Qsnrp3XbPXh2qQmp4vST26/L8r4R4pZfVZ0+qz9N/q8uj6x6HeUP52YnvxaR17kmUV6NXSWJXlpc0eZbrRfVKlwfSsifbocUxffnZ/U/cw8vJLT6oghaIJmi0v3bRp1MGPc83HyMP56eeL7W31VKXP31hpQqZnZmygOKGcMvN7AOrXapt3FuXhk1fNPG32coqk272++NvztrXY7G2lym982pZ7u/LLWA4u9cXfd/1arXNDrxP4nJZlLWl04VYOzseDXa8Rqp8rqn7q8mhTP13Xc67XjvnSlLG+RNn0djzeel0OXTI2d159vrq+hPYZAAAAANwxZmEPbDytmlmRC7v3qH9Vw9c0SFWDMrbh6P/da3RfCzX+VAP73k25saYapVKU/QfD4yB2HF+vy+MH+pOzmEawasQHHz3deHJTrt3x0h2elMA9fbllnGzFn9ykoB+FXLuq0ugHCrVXsn5/1UtfhJcvqnyv6wkVAgEVbeOxrCx568WOY+mgdHTWC8ToYIqexKEZiNHUfqo8vXZ9yQRzg7uSu740qibos0ltV5f7pasm7YmB3kzl4Fhf7L6bPPHXeV239TGwzOrGMeFWDu7HQ6noPaIbrp9+eSTXT9f1XOu1a/1syjlJkpfeTuOO9r4cumX91sdy+VJ0nwEAAADAHcHCXthYl+e6tTh6UKaPHjEBtqTZj0v277oXYlIvmHDw0Ve2s4VW5VlCi3HsgNcYbtSDAR5HpWMyaXbUC7wkMbsUCMS4p68LbAAp2+QmNnjQZhywcKBpQiomglqR42f0pAMxP36Pt66YkMOTej+rstyu19XG41AwN199eSV1U0BTcnJuQkotkyq8imwrIkM5uNYXP4BTWw3kib/dwDL/ffmPCbdyyHM8bNbP9uPURQOhbuu51mvX+hmQ8bgNK8uBitp+m3qu9aMcAAAAAGBQESzsiVfyrKp7pVTkkG4415JnP/Z7ez1/mjF4URqT/Sb4k9T7xgaHOvawScfvddeoricGAOICMc7p6wIv+JU2/X5+VaWaUFbNPAgGmuysrT3j97qqPY0NPifKWV/Wb12V5VpdCqMzctoEj87L7NEJSTMZa5ZycK0v/nrBbcRt13tfchmn5lgO7sdDsH7GrxtbP13Xc63XrvUzINtxG7XHS2+HXom9LwcAAAAAGFwEC3vE75WiG6SP7if1kAkEaNq1bG1Pm1BPlbhlIX6juX0Pm7Q6N65tj55QICZH+nJLue0mP7/q8sZb0CIuINXs0XZnwTwa2O6nXS+k1FzzKnd9eeU9/nj9qiyv6bpdlNHJGTltgobtHq/OUg6u9cXvBRdcL+6z7PvalHFqTuWQ53hwq5+u6znXa9f62ZT1uI2wQc72vRL7UQ4AAAAAMLgIFvZa7UHyWG6plGV6qvXx0E6PU5b8nkGO435l17kRHS8+ffnZ/Unbw6njOGntAwzdGo9wq3StvmzYMed0oOj6ktQaOmg4K9OJXQwzlkNHMfUltjdbzHY7lvEgSDgeOpZPQv10Xc/qfb3OV1+8et6NQF2XywEAAAAABtgODRZOyOy8N87W2ba9oLrHfxStfQ8XOxacVKQybha0CE4W8DDw6GS73itm1ls7eL97D584RSnGDiuoZwC1k5+EGtHu6cvNDwyl1Lm84oOhG3X9uLlIoTKW+Ehuabyc6nHdVOykHYXJaRnzlrQqtT4e7F5f1LGjxym0v4VsPJbF1ap6kVQvlEzl4Fhf4nqA2aBOaFnuXm8BTuXgfjw0e/plrJ+u6znXa8f62ZTxuI1q1vO2gbrel0N39P46BgAAAGBn2JHBQhPIsi3Qdo3fbkr7KNr6Mx1sERk9cV5mVeO7STWop+fOy2kzWUBdHsXOHFqUQx8FGt5qHd2Y1OvUal5jv1u99d688T5v9MQpGQtkYGn8mNrmOTluIoVqe5FATL70dcHoEZkObLdktnusJZDRsbz84FN0zMYnT6Wm/y9Myel59bnBvPHTeOKcHE4ISmTmT54jFTk+r8simKc6aHteLpyZkZOxwYTs9cVMBKHHKZz3yi907Oj1be+rjlKWg0t9ies1mXaZM8dycD0eXOtnz+t1rvoZkLK+hPm9+ioyGfj80vhEaP+1XpdDN/TjOgYAAABgZ3hr4r33v9IvRkb2ycuXL8zC4VaW6flzXi8RrbYkl9vM5tsd/jarsnwpfhbkoLG5hWawrZVqsF7/uPVR5vFTcsH2Bgvz3v/soG7wSvy6TiZk9qLtPRjVUOmsFuV4wvac0pdbpNwj9Fhsm5POdC6vku59p4NqofWsxLLwNFSdu63qXNeSWDomZ9vMsNyorartRYKvOeqLn/ZEKn16huz49GUpB0/W+uK9P7zcWxYsz2zHZCou5aBkPx5c62ef6rVjvniy15egpLrajXqWOz9zieRLT65jAAAAAHaKt0vl8oJ+8e6735DPP/+1WTjcfiMv/q0sBytF2aWDWj/5r/L6C/unrVL6I/n+1Ijsqj2Qv/9FfJM46PUvVqT2WVm+uVvt4y67sFGX2s9/Irf/5h/kF3H7+3pdPivrGW79FdT71zbf/wcf/lD97aX8/MfrktQJJpsNefr8V/L213fLXn+beh//5W/k9j/9N/ntH3wo3x2px27PKX25qXL/aVXeLu/b3F+loerA3b/9WFY+tQuMb8kHPzggBfW31Z9+KnG74+VnXZ4//EReRN+gyuKhypvSvt1SaCbQC4rcXfqR/PiTjdjPdPbFp/KzB1VV/vukqNLW3KLa/0f/sih/f+9x6/Zy1JcvXnxi0qfLfldgew1Vhr/U5X/vXxMCP1qWcvBkqy/q2D7ygezdFdx3u+zLYHl2LuPMXMpByX48uNbPPtVrx3zxZK8vQV+8eGm2G63nD/976772rhy6oQ/XMQAAAAA7xg7sWQgAAAAAAAAgDrMhAwAAAAAAADAIFgIAAAAAAAAwCBYCAAAAAAAAMAgWAgAAAAAAADAIFgIAAAAAAAAwCBYCAAAAAAAAMHZMsHBkZJ99BQAAAAAAACAOPQsBAAAAAAAAGAQLAQAAAAAAABgECwEAAAAAAAAYBAsBAAAAAAAAGAQLAQAAAAAAABgECwEAAAAAAAAYb0289/5X+sXIyD55+fKFWTiMhj19AIBtZvyUXDhRsb9sqt1ZkMUn9pchVzp6Xk5PFgcwzWWZnpuVQ6NF+7tWleVLN2Xd/gYAAAAMq7dL5fKCfvHuu9+Qzz//tVk4jIY9fUB+ZRk7+mfy5386K9//wbQcPjItB8tfk3+rfyqvv7BvwcDSQZe/+stvyWcP1uW1XTZchq9+lr49Ld8d2WV/81VlbXHry3Aw6ktZ/vBPj8jeXXV5/vATeTEw5ViW6flzcmhvpGwaVVn96afC6RAAAADDjmAhACmNn5K//D9/IN8ZKcquQPt4V2FE9n+vPMQBqGFhgy5fDmcwY1jr5xcvPpGHD1bsT1Xe/vYHPSrDQakv35IPfnBACo3/Kf/flQGqt+N/Jn/xnaIJDi7/7cfy9z+2ZUSgEAAAADsEYxYCO5x5DPBERQrqdaO2JDeuL8jlS/rnqiyv1dXSihyfmzDvxaDaI0VTgK9lw1swNHZO/exlGQ5IfSntMeU6aPW2VNSPHtfl0dJNWR+2AwoAAABIgWAhsJOVjsnJSa9hrMcMu3brsWw0G8evZP3ex3LjzqrcUMsxwMYPyqj6r/ZsyMppJ9XPXpbhoNSXPUUvCPymTb9QVQfOXlyQCxfPy3TJLttSZTlQ8XoVPiNQCAAAgB2KCU6AHcuOy6Va606TC5TKMvbRrEyOeg1+QzWwH62uyMqTV3aBz26rsSSX74tMf3TEmzhAv3/ppqzIROuyZkM9sO6tx1IaPyaHp6Zk1G60od6/1q4HUKb91MLb07+PHZ2WyUmvd5ume7jd1oEr+3uUfmz25JR6f3ODdamtPZCH9+LWcdnehMzOH1F5oANpnXR5Uoae5addT71pqOunVTITfYg8uv5x4LPbS1/PulNfstVrnyqHuXA5NGqrsnb/rrw52GlyE7XfF2dMYFNrrF2Va/fi6lg3ResrAAAAsPMwZiGwUzXH5VqV2/+UbSwuM4bcX/xAvlPYJaEpAHYVZW/lAzn4dlV+9uI3dqHmj032lpT+5LC8r9Yz1Pt3fb0sH6hl+wPL9n79V/LwFzb8UPoj+f7UiHzZaMjXv/1DOaGDTMFx69T7939vTN5+3jpBQvb9VPztVe/Lz778Izn71zPeWHn2z9quwgH5Zty6JigzL3+s8jU4tp5aQwojB+S73/6a1KLjnrlsrzQuh6cq4TQlaXRvXLqe5ucOqJ9Bf/DhD9U2XsrPf5xm/MWM9Sx3fXGo15ruFajLO1IO/liT7/z+iMqrNhO66P3+3khz3S//109jjrlu8+qC6Pq65dsCAAAABhM9C4EdamxuQY6POvTaGj8lF05UzMtwj7CylI5Oy+lJ/bd6uIeUDhqcmfJ6Fulx5/Q6gc9pWaZ+b/bqCb7PPI66KA+fvPK2WZqQ2ZkZrxdXcB3NZT81u16jURcpFKXQqMry0oqsb+geTbqX1DmTby3ba/aCsr2tnqrtNdM/IdNqP2N7yTlvz2e321iVG1futunhlVOP83Po62eILcO27/E51rOmrPXFdXv+eora1vLS3WbvStNDUeWZye8O+zE2d17Vg2KkLLeQLc/M9Q4AAAAYIoxZCOxIE1IxrfiqVDM1iCdk1gZGdGPajCFnftNeyca9m3LDTDpRlP0Hy95izY5NZgID/jqv69KILrOCY5h5kw0o+n2XPlYNeBuI0TYey+LSqvc5hT2yOaSZ434q/vYK+pHNtaty+Yp+hNR/9PGVrN+324sYm9OBkaosX1f7qB/LDCZI7eeK3c9CsTvba+rJJBG9zs9hr58Rtgzbjt1nudazpoz1xXV73nqKDoBe2QwUahtPbsq1O1Wbv+33Y/3Wx2ZCm3BZboWy6EfIz5r6k7XeAQAAAMOFYCGwkzXq8sa+TKN09IgJAOixw5J63Ww89YIAhd17vAWKH1CprQZ6ENkATXCZ/75G3Q8miezerZfpmUkTeh9tvPaCDgGu+6l529PBpvbjo4UDO35wqyLHz+jJGGJ+/J5rEW7bC/DzcQsnq+h9flpDWj9b2G0FPzeeez1rylRfHLdXOiaTpiC8QGsSk+YUAdIt1ZxA5ZycPqHTonuHxo/ZCAAAAOwUBAuBncjvXZSRHxh5/rRTUCPMX68eiAuMHdA9eMLLvPcFe/WUpWh2VL0vNhITz3U/N7en9yF+3dJB7/HJUGDHzi6bneP2AuLysdt6np9DXj+jvG0FPzeBcz3blKm+OG6vWabV9fgAqhIXeO0LGzz1NWoPEgPNAAAAwE5BsBBASikDI34vqWaPIb93UnC9uM+y7wv1Jtvjva/2NLmnT8tjla77qdnttenRFhdYavZMu7NgHpls9xPuXee2vU3dCVa11/v8dLNd6meU3VabPPK51zNftvriuj2/TJODtmU5UNHvSREg3WpPbnppuH5VHtVECqMzMjtu/wYAAADsUAQLgZ3IfzSyUJTdZkG3lGV6Svdc0rEPGyjwgyWhgEpMkCUuqGJ7NrV7VHHsI+8xyGyP4cbsp+b3pOoU2EkItiSOE5ck5/ZSBat6osv5uaPqpx9QTcqjVpnrWZNbfXHfXhI/zZ0DpD2z8UpWzPiZqi7mDlwDAAAA2xvBwqE0IbPz3nhSZ492u5GH4fBYqjX9f0UmE+tIOTIhwyupmwhORSoJPW9KR2fNzKh6rLKHfo+huB5ncUGWmPd1fFRx/JQ3k26oh5LjfirNnlQdAzvhIMdGXU+aIVKojCVOYlEaj+an+/aa/ACWk7Tnid7n53DXz4gUAUefaz1rylhf8m2vKMXw8JWWngHbnyW5XYC0X9exdL0uAQAAgGFGsHAImYaYbRG2a+RhZ/NnoS1MnpOzcxOhelIaPyVn9YD/88dCy9efVc3/oyfOy+x4oAFfmpDpufNyelIHT8KTPcQFVNIu8x5n1NvTAYPgPuqAw3m50Jz5Njwhgct+ah0fifUDO9Gx2J48FRPbKkyZPBsLZFrJ3+aJc3I4EsRy3l7U6BGZDqTT26baD/t7nCzniZ7npzLM9TOOLoNmvSmp9YP773OsZy3S1hfH7b154wUZR0+cCq8zfkxm58/ZAKrKyzYB0n5cx8xYi4PU2xEAAADok7cm3nv/K/1iZGSfvHz5wiwcRsOevk1lmVaNMdN7RqstyeU2s1FiZysd9QMocery6PrHshKJ4ozNLTQb+61a1/HeH17uLavK8iU/iOLX25hl6jMbUpRCQpcoPfNt3PhsWfczfh/C/PzSY7i1TIIwfqoZHIrTUMfibXUsbm4y5/aMyPEekXq9FOeJnuenMsz1c9OEzF60Pe2C9EzCV2JmWM5cz4Ic6ovT9hLSpDVUHlaLcnxSYsvPk71+5udtc3+1U3kBAAAAw4+ehUPnlaysVk2PHNMou0+gEMk27n0sl68vSa3h9QTy1E0A4Mal+Ib8+q0FuXFH1TFTySy1fm0tbp24MensslAPnrjHUf1lD+TalauyXNNBmU2N2qosX0+ayCHrfmodHvlV2vaU0xMltORlYD9bAio5t2eo413lzSOVN0ENfeyrbcYHCrXs54me56cyzPVz02NZvL6q0mh/VXT5PVpN6E2auZ4FOdQXp+3pNC2Ft6PL4M5VuXHlps3DYJ5H9eM6psvTZcZvAAAAYPjQsxDAYCodk7NnpkQ69swC+oD6OVxMD0pJ7AULAAAA7CT0LAQwkMz4Yer/4BhxwKCgfg4Xb0zKilR6OpkKAAAAMJgIFgIYSJ0fwQX6h/o5XPyZn0cnz5kZmL2fU20nCQIAAACGFcFCAAMobiw5YFBQP4fOkxUz7iQAAAAAgoUABlLnyTGA/qF+Dp9Xsn7rY7l8aSHww/iFAAAA2JmY4AQAAAAAAACAQc9CAAAAAAAAAAbBwiGhe04OM9K3vQ17+gAAAAAAGBYECwEAAAAAAAAYBAsBAAAAAAAAGAQLAQAAAAAAABgECwEAAAAAAAAYBAsBAAAAAAAAGAQLAQAAAAAAABhvTbz3/lf6xcjIPnn58oVZOIxI3/ZG+ra3YU9fehMye3FGRhurcuPKXdmwSztzXa/7SkfPy+nJotTuLMjiE7twaJRlev6cHCpUZfnSTVm3S4E0xubOy/HRojRqS3Lt1mO7FFtu/JRcOFGxv2zKeo7qdflt+fa6lC8AAGBnomchAPRI6egRGZW6PFrKFvBLWm9sbkEuXFQ/88ekZJeF6Mai/vvFUzJmF+W1e3dR/VuX+mvv90Gng5vp079HigX1X6Mub7wF2GGy1ZeA0jGZHNXHhkihsCf+eMSWKBW9fA+rSjVLQKzX5ee4vSz1syv5AgAAdiyChQDQC6pxeHJSNd5qD2QlU6Qwab2yF9jSCkXZbV9uKsv0lO1V0rXgl7/NutT72b0xtbIcqKi8S5v+0h4xyWu87mvvTfRLxvoStLEuzxv6RV1q1XXqTw9t3PtYLl9asD9X5ZEuh6xl2Ovyc9petvrZlXwBAAA7FsFCAOiBsY+mpCBVWc74uFnyel4vuIZq/MUpHZ2VQ4W6+rv6pVvBr9KY7NfRtNrTbfKIrt9TMF36SwcrJlhYe8YjpDtTtvoS9kpWruigzMeyeO+VXYbecy3DXpefy/by1M886wIAgJ2IYCEAbLXxU3J8VLXT1layBdnarWd7wTWqVWlIUYqh59gm5PCkHgurLvpNjTddemZ4T9HbZrc+b6uNHxSVfamDf9vtEWt0Wcb6ggE0zGWYJ23UbQAAkBETnAwJ0re9kb5hZifNkKyTk3RYzw5eX1tblcLklDQCg9brca1OT9Zl+Y7Icf2e2AHtyzI2N2vGzdIBQK1RW5W1+3dlfY/+7KI8uv5x6NFn73OTJjfxJwfRwc2rci2mt0xJ7fPJqYoU/A3qR/DWHsjDe4+71NtlQmbnj8hoQQf9OolOYhKd3ETlz9FpmZz0ehtqeiKC27eS93Xr0xdWKk3IgY+OyP5IGd6+1aaelVS6PgqXuzSq8mh1RVaexPVwsvnSWJLLpndr2nxxXW+Ta36mz5cc9cUefy3STkLUs3LIL1s5RI+jCD/fWvIpnL7S+DE5PDWlysb7a0PlzdqS+rwOifPOUdJy7mqRt/yUTMef0/bynM/C0uVLh7LzlY7J2TNTUlD1zauLAABgGNGzEAC20vi0CaDVVtM1QJs6rOcNXl+X+tPXop80LhTLZnmzV+HaisgB3TiNGdBeN/YunjMzcTbb/0phdEqOnzkvs2a91nEJk3ve6UatbmSq/b0TFyjUf1+Q06qxvBlw0IoyOjkjp5MmaMlK97ZM1bBWWsbu8h/TU8v9/AkEYrTC6IycPOrnc1CP0tdUNjOpnj4zI4diyvD0xfMyHbNBHfQ5e6a13KVQkUMnzsnZuLTZR89Nb9Is+eK6nuGanxnzJUd9iZ88Qr0txfhzPS2HXFzK4ZWsrFbV/xWZbKkTar91wKxRleVogMxPnzoOp3UZntgMFGoFlTf63BRXr4Oa56gOhZCn/FyOP6ft5TqfhaXLl1fyrKqHtYj2VA8qy/SM25AaAABge6Fn4ZAgfdsb6RtWqrF9cUZGM/RW8XRaL9gDZEWK6vX+qhek0zMkHx/dXN7aM9F+tn6pPn956W6zt47pQaQDA/qXlm0n9DrRAQDdy0Q1RGt3FmWxpVeUvz3bG+npY9nwP7Q0oRqeqsGtNhjfWzGPjHlv06Eb3XrCmIIOaDR7MunggA7uqJctvWl6nT6/HPRrL88fqjz3NhnobRZNd6BnU7gHWllKap3Tah39eS09j+x6ZmzMZr6sqHzR5dwmX1zXc85Px3xpylhfomx6O5Zzr8vBWZ56HXeu8D8vuCwgkC8t5ae2N6u2Z4KHbdNnt+GSB2nLL3c9s1Jvz5enfmbIF7+eJfQO7/h3AAAwNOhZCABbpHT0iGlsP1rK1rjrvF6gF5y3QAq796gVj8nkqFpsxjiMH9B+bE432BXdcFSNzuBjfRtPbsq1O7pXkBIdCD9ucpNAoFAHN1oDhf72qrKs/64fWwx+6MZjWVlajfSM7JKMMxv7k5uYnjyqIXz5ih8o1F7J+n1vP6N6nT5v4hr1QgcN9OQIzUCFpvbznirD60smCLy5fEJmbSBGByeuNQNUmlpfrXNjzetRtP9geD/9HlHhfPHLOTlfXNdzzU+3fAnIWF+ivPTG9boN6n05uMpXr6O9C3WATX+ePk/EBAqVZs+7uPJT21u025PCnuReurYMXcZUTVd+6n1565mVdntNeepnlnx58lRq6j9zPWlh669K+20ChQAADD2ChQCwFUrH5OSkahDWHrQfOysqzXp+4888wvZK6jZK4M+cvKYbcnENRBtMNA3dDj1MWgbCj0xuonshXggECuP3dUIqJjKpHyFckAsXY37MZ2wBu79pB/T3HtOzQZw2DeFwg7vX6fMeMTfjk7XrXbTxOBQE9oLPat/XrkpSL6aNp3qinNYgwWa+tO9JFA1EuK3nmp9u+RKSsb6EleVARW2/UZVniRvvTzm46UK9frIij1RCCpPTMj2ne+K1O09sPiab+AXJhjfcQlv+OaqenD/x0pVfV+qZkXZ7AXnqZ6Z8ee1dT2KCsn79zTykBgAA2JYIFgLAFvADd1nHdUq1XqTx9+aNfjTxSKBXoWrY2Z5ywQZic1mbcbKSerz4PX/055nB8m0PqbYNXjsDZz+M+eMupoqdlL1emCrfW8Z3tOLys+fp83sXBXt3puAHYp4/zR5E2cyX+HVj88V1Pdf8dMyXoGz1JSq+F29U78vBUVfq9WbvwkPqw2p32k+s4aVP5X+OKJRXhsnHcLJ05deNeuZJub2APPUzW77YL58KFTkQjBY2v8RaSgx0AwCA4UKwEAC6bfyUGT/MD9yllnK9aEBvo+6PY7b5eJgfmAg2LjsHK2yPl5hGu79uYWrBzIisx1tb1o9MFqbk8Lj3nig/wKh7612+1P6nu+NfZQ0+tD7WHRWXnz1Pnx8kztR7LGVexH62W770PD+d8iUoZ7DKBtfa9/rqRzm46U69Lsv0lA5SpWHT1y4I5wfqEgNsNn/b5FGiVOWn5K5nVtrtNeWpn9nzZf2ZDvIWpdjs3KrKkklNAADYcQgWAkBX2UZy5nGd0q4XE9B7XZdarSqPmo+H+Q3EDI+5GUlBCf+xRNVYVn83g9urRuP6vQdmfKvRqfaz/XZ9PMKOUgQfgtIGIhIa671PX7dtBnZie/plzRfX9ayBry8R0eC9uy6XQ055ykFPuGIePb6z1PkcYdPXLgjn9bhuF2Dzz11JeZSse+WXTvbt5amfDvmiriemc6Ff/nZm/sxffgEAgG2NYCEAdJE/AH7WcZ3Sr+c3/gIBvY27snjrpqw0Hw9r10AM9hgJ0jOq6kkIlOh6fjBNNXAfXQ/2JnosD9v0LjQ9HpVCZSwxUFAaL7cNNDpp7m86/iOcnQMR4SBqz9PnN+Inp2XMW9KqNBHZnj+mZUUqST1AA5M2PAw8YtjsYZYxX1zXc85Pp3wJyFhfopq9+toeuL0vB1d567U3I7vaX/3o8ZP25wjNT1/iI9S2x3XbR2lTBByTpCs/JW89s1Jvz5enfrrky8a6PFcJ9crf9csvAACw3REsBICusQPgZx7XKcN6tuHYbtzB5nsiDUQztqEyeuKUjAVatKXxYzI7f842yGMalv7jd2uLLeOObbTrXWhn1tSBgtPzx8LbVI3q6Tk99uG5xCBCbqNHZHp8s3eUt021H/Z3X8dHOP0GdzTPe50+24g3E0/M6zIM9PxSr8fU9i6cmZGTZgbaTd5jhbrcz8tsID90YMPso5m0oXVyCdd86Xl+OuZLi5T1Jczv1efP/OspjU+E9l/rdTk4y1Gv9Xim3lAKm5O4tD1HKF76dL4syNmjwWCbLbvmDNLxMykH6QBXc3912QfzOVb68utOPcuwvSin+unJli/+uIVFOeD45RcAANj+3pp47/2v9IuRkX3y8uULs3AYkb7tjfRtb8OePp+Z+GNS2s76GSfTenoWYtV41uOJJQUWvc8rxrxnQmYv2t6DUY2qLFeLcjxmP5I/z+P/3TyeHO19Yvc3iR778Patx11uiJZlel4/Bml/jQinw3+vSv+l+GBE2/T3On2lY3K2zUy0jdqq2l5rw97v7RVP9xiN1j3XfOlTfjrmiydLfWnlpycqbr3elUNODuWgZ0g3Ex+pv11Wfwvy97H1HGHTp9LesMMcxIk9t4QknNsaq3Kj3czFSpbyy1fPPJm2Z+Spn275EtrHmPIEAADDj56FANANzdkiH2QKFGZdL814V8k9kR7L4vUleVTzehgajbpqbF5VDceb9hFGtV5kPzr1bPJ7DsU+nvfkplxW26yp7QTpRvWyfqS5m4G0pleycuVqOJ1KQwdE1TbDDevOj3C2TX+v07dxV65duirLKm2mk5NPpe2RKsdrCYGK9VsLcuNOVeWBXaDpsl9bkhuX4oLUrvnSp/x0zBdPlvrSauPeotnuJi9fg48S+3pXDjllLIdmoFAHoWICS8nnCD99D+SaKoNo+TW31/ERWH1uW1X7a39VdPk9Wu3c2zJL+eWrZ55M2zPy1E+3fNl4quqoeaW2EVOeAABg+NGzcEiQvu2N9G1/Xo+h5N4/SVzXA4Btz/bUk449B9FTlAsAADsePQsBIK9xbwD+zLNFuq4HAEPAn1wocXIT9F5pQmb1o9ZMagIAwI5GsBAAcik7zhbpuh4ADIcteYQa2QQmatGTXZ09o8c4bJ1oBwAA7CwECwEgh5LjbJGu6wHAcPBnBq63jJOKXinL9Mw5uXBxwfycPuFN3lK7Ezd+JgAA2EkIFgJADhv3PpbLlzpPghDluh4ADIfOk7egt9JO6gMAAIYfE5wMCdK3vZE+AAAAAAAwCOhZCAAAAAAAAMAgWAgAAAAAAADAIFgIAAAAAAAAwCBYCAAAAAAAAMAgWAgAAAAAAADAIFgIAAAAAAAAwCBYCAAAAAAAAMAgWAgAALDNlcaPydn5UzJmfwcAAABcESwEAPRd6eh5uXBxQWbH7QIAqenj5/SJKSlIXf1iFyI3zkvbG+WHsLKMzZ2Xs0fL9ncAQDtvTbz3/lf6xcjIPnn58oVZOIxI3/ZG+ra3YU/fdmaCDJN1Wb50U9btsmQTMntxRkbtb4lqS3L51mP7SxplmZ4/J4cKdXl0/WNZ2bCL0VG28sOg6Ub5jc0tyHF1UDbUcXdbHXfDcPhwXkJ+lB9a+efL2p0FWXxiFwIAYtGzEAB2rLIcqBRFGnV5Y5e0NX6wc4Ncabx5bV+ltUeKBfVfoyrPaNBlkLH8MGDyl18zULh2Va4NSaCQ8xK6g/JDq/VbV+VRQ2T0BEM2AEAnBAsBYMfyG1Ov0wUZntyUy5cWmj831upmsf6GPrj82r1XZnlqpT2idyP1fsDKWH4YMPnKT/e+awYKsx5zA43zErqA8kOsV7KyWlX/V2SSx5EBoC2ChQCwU9keObVnWR7N27R7d1H9W5d61g47UXuKplGXvefPDpez/NBnecqvdExOTured6tye6gChQrnJXQD5YckT1ZM78JCZYwhXgGgDcYsHBKkb3sjfcPDG2tLNsdIKk3I7MwRGS3oBqzSqMry0k1Zj+nqUBo/JSenKlIw3SG0utTWHsjDe+0fLyypbRz46IjsH/UaR1qjtiq3b92NrKf2ZT6wL22p/Ww7Xpg/Tlin9/n0wOKzMhnZx7X7d+XNQZ1nxS6PIZS8vfU9p+TCiWLsOFZ9Kb/U63Wz/LJLX88CSqocPgqXg87DR6srsvIkLshlxxlr+OPLqfWPTsvkpMof7w0JY/O5rrdpOx1/3uPH6cdi47yUpLfnpV6Xg54h+7BaZzNv6yp9Ve88GLtS+Djy1p9S63t/baj9W0vYP6Nnx7uvF+Xnj33YoU6VjsnZM1NSiBsbM2u+tPsso/0+5aln6SRtX6VzfI/6/7Wsh9Jlj8uW9CSXX+t1ugvlENCSRwCAFvQsBIAuavZqUTef+mb0whl1gxxsBOs74pYbU91YXpDTJ4INQa0oo5Mzcnr+WMK33/pGW93wqm0cCjZClMLolJy+eF6mgyvqx7JSNciVTuOF+Y941Z52bpDrm/eL5+R4zD4eP3NKDuvxyVTjvtqtQGGH7c0eqKjfvDKK6m35ZVyvm+WXScZ6ZungxtkzreUghYocOnEufkbK0pjsV282vYH8cgwEDrTC6IycjK7rup6xzY4/lb5J0/XuQepGLuelGL0+Lyk9LQd1/OkZskOfr9bx0ndeZsfbHH+yR6Z1GZr17d+Ugjp29bp9P961npXfK3lW1Y+2F6UYX+GVskzP6NnIq7IcCVA55UvHXpH+o/rxx4NbPeuC8Wk5fmJGjk+Fe+yVjh5p7S3ctvxU/Wy5Tucrh6iNuv0sHdsEAMSiZ+GQIH3bG+kbFvabb1mVG6tF07gzvSLuP5YNc8OrGtHjEv+Nu7opNr1EnvrvVUoT6sZXNbjVnXRr7wj/W3b9Wq17Z1Eeqs/1VlXb8XtnNNS+XInr+WW3m/j3DlQD6IJOX8fx0vz0KWpby0ubPVpMTxndANa/uO5Hi83tNXsopN5eL8vPdT1fzvJLzbGe2fqhhXsGlVXDcVpOq3X057X06vDrlWoEi2rcFkwPmBVVhjrPdRBKNy7Vy2ivEdf1nMuhf8efbvxn6xHDeamVnz5FbWvrz0taP8rBK4PF5meq42982qYv+fjzRMpPbW9Wbc8EDxOOP60nx3uvy8/fz6R6lfR3x3zxjvE2vSJ1oC2x95xLPcvKr1+qvJq9/ALHfijfA/vTXOZYfq7lEMfmoaR5LwDsUPQsBICusd/2S0Xd7OobfXUTqhsHzTvdVy036GNz+oZZ3XCrxsKifpys+V5l47GsLK1KQ70sFMO9D0pHZzdvyi+pdf0GnaG2c++mXLu+ZG7Cgx/Z5PfAcZ1coej1UmjU299ke+lTdKNG3fT7DQJt44naxztVk75uDULvb083jq7dit+e1qiux2yvd+Xnul5TzvJLy62eqYagbSDrxm54ll61vlrHm4SiKPsPRuq1rVemp5lqxF2+oh+V8/Ncbe++ly9Rruttv+PPnyk4ywyvnJei/PNEr85Lnt6VQ5OqJzrYt0mVh07fpavmM6PBZj//YstPbW/Rbk8KewI9x3p/vPe8/J48lZr6r7A7rhuaTb/Ks/D4oe750uwZmNixsF3Pw+z1rCtML9G61Gpe4He3XdzsPRq45qYpPyNafk7lAABwRbAQALrFb+iqG+XGHa+h1d6EVMwds360a0EuXIz50b0HzHuDJuSwntxANyKD37pHqcZd8CY8xDY23CYRsAELtf22j3iV7OOSuuGpGitJ9H4kP26VQWB7ugdHO7HBhB6Wn9t6AbnKLy23euY/cqZ7d8T3ilSrPPUa89FGn9dI1o1r1cBt0+CL1he39bbj8WcDAVmCIJyXwnp9XvL1rBy0V1I3B9iUnJybkFLLY5uvYsvAD1I9SgrmbrxuCd71/HjvS/m9tvkZDJJ6mo/YrobzzD1fyvYYT/5CYMw8oqve0pXrWHeMfaTqotrnauS5aLNc1annT+1+pCw/rfU8kL0cAADuCBYCQLf43/a3aRyE2Fk/M/MbA2nG5UrgNTba9Fxoyw9YtB8/rHTQe5QovhefJ21PoDTSby8h3b0qP9f1AvKVX0qO9cwPODQbh6nZRrIJ9sSv2yzjUH1xXG87Hn9225mCIJyXQnp9XmrqVTlY67euynKtbsb8O22Cjedl9uhE/PiGhn8cqfzPEG3p9fHen/Lzg68VORDMwJKdlby21FKmzvlie+IlfyEQKKduXMe6wgts6zIJH3s24B0YXzV9+cWlL3s5AADcESwEgC7xG7ppGwd+g0Y/onT5UvufUK8LvzHg3GvCrVHY5AcFOvRu6txYStkTKKX024tPd6/Kz7ncm3KWX1pO9SzlvsV+dudgj1/G4Uak23rb9vhTsgRBOC+F9fq85OtZOTS9kvVbH8vl61dleU33YLMTopigYdxjy/Y4ahfsbcnj3h/v/Sq/9Wf60djghBhlSZ5MI0e+dDyO/HyL73mYtZ65sUE7y+vVV5U1VQ+9iUMsG/AO9hBMX37xeZetHNrw87mbXwgAwJAhWAgAXeHe0E0cb2rLpGgUtpM7KODr3FjsqmaPjbjt9b783Ms9Z/n1nWrcTekGbaSh5vekStOjJvgG1/WsbXX82WMvPc5L2W3FeamP5bDxyhsrUgcWry9JraGDhrOtMxrb46hd/nmPlIaDP511+XjvaIuuK6/r3iPDfnmMT5vxORtrK47n4fh88YPESUGsUtt8c69n7mxwL3Tc6hmLbfoaq/IwU9C2Q/l1qRy8oGp3A8oAMGwIFgJAV2RvoPjfwBcqY4mPhpXGy61/82+WJ6dlzFvSqtTmcTO/d4ijbD0Xgj0AgvRMl3aQ88TGojYhs/Pe+FxnY3vDRLUOFm+YmUO9hm789npXfs7l7stVfhny06me+T1OKlIZNwtaBCfBCDYimz2pEgMR8WXkut62PP6iDeWOOC/F6/V5qYfloPdNj1NofwvRk5SsRntmeToFqfRMs2Zm4lCApffHuydv+TnYWJfnKq1eeWwGwuIn03DPl7jelD4zS7KdNCU+qJu9nuVmgnV1eXQ/Uo57Wic22ZSj/DKVQxL7eHQv8wkAtiGChQDQDS2PZ6VgZ/bTg9Cfnj8mY4HWXUkHt+Z0w+CcHI42NuzNshn4fv6UWi/QWFWvx9R6F87MyMlOjdjRIzKtGps+b5tqP+zv8dL3XHjzxmvsjp7Q+2heGqXxY6qhfc42PFWWtevJohsOZnvtG82a93iSet/kOdWAnzD54ufjWZUfpmGmxDZOe1l+rutFOZRflvx0rWd+OYyeOC+zgf0zAVudNjMJRuskCu0ayYbf8ynS+HRdb3sefxlxXmrR6/OS0cNyMI+E6nEK573jL7Rvar1Z25styjuOdL7oAGgw2GjLrjmz781QD65eH+/dKD83/nh5RTlgA33tJtNwzRdPUQ59FCgDXW7zC2YdM9uwEhvUdalnOVV0kD7mkeiiWq4fDdaPJgflL79s5RDL1i0mQwGA9t6aeO/9r/SLkZF98vLlC7NwGJG+7Y30bW/Dnj5j/JRpTOlBxePHj0pg10vSqC2ZmX1bbmhLx+RsmxlzGzU9I3DSjXBZptVNuR88i9JjZG0OEt7+vU2NVbnRMgOqauBctL0EolTjYrlalOOTIo+uf9wc/Dwssm2VF5c7jEk0NrfQbGwE6fxYe1NJ3l6vy891PSNL+QVlz0/XepZUDh7VQG4pA3/fVL24FA5G+EyvGt1Yjq2fWdezBv74i7LrStzxFqPX9ZrzUrwel4Nf5xOp9fRMtJvr+fVK9w4tSiEhX5P2v3fHu5a3/NyF8jVFuWfPFyWxzL33Pzuo96HL1zEHwbSFyii4/7F5lL/8spZDmN1+7LkBABD0dqlcXtAv3n33G/L55782C4cR6dveSN/2Nuzp00rfnpbvjuySX/78H+Vplg4Nr9fl4fNfSWnfbins2mUX6kbgqtxd+pH8+JMN+cIuC/niU/nZg6p8Vt4nxcIuaa6pbrYf/cui/P29x/HrGb+RFz+tyttq3b1qXV9DrXv3b9UN+qd2gfEt+eAHBxIb/02//Kn85BfR2+4NearS9vbXd29up1GX2r/8jdz+p/8mv/2DD1We1eXnP16X+CxT+/lvZTlYKcou3Yj4yX+V18mJMl7/YkVqn31N3vk9vb3fyi9/+T9lbemfVT6+loN/ekT27noZu72el5/rekaW8gvKnp+u9cwrh7J8c7falr+SLvuf/0Ru/80/yC9aVrL1TH3u6k8/jf3MP/jwh7K/UJfnDz+RF803uK5nDfzxF/Ubeedb07J/7y753fOY9ERwXhqM81Kvy+GLF5+Y9XQadwXKoaHS+Uudznv/GgmS2Pz85U/k//5/7reUX3N767+xS8J6d7xrecvP3Rdf/m9y8HsjKl9UuV9R5W6XJ8meL4oq88/K+hFefwX1/rXN93v50uXrmIM9altmDGDde3AxsC+lMTlsJigRqa3+Xcx+5C+/rOUQVDr67+WPVR7V/uVH8j+2OI8AYLujZ+GQIH3bG+kDthq9CTAk/N57mXvUAAlsnZIe9Ejb1sinweBaDn6vR86dAJAKwcIhQfq2N9IHbC3/saVePJ4FbDXvEcCExxiBjJIf+d3+Qo+sdlRNfCzajBt4Zni+cOpavvSaYzmUxk+JmRyGLwwBIDUmOAEAbH+6p8HF8zIbGphfCQ0m3zrYOrAdrd9fNWPLHTpzqrsTomBH6jjZyDbmT9ySWWCCHj35hp4ka1SPGxg7Icn245wvvdaFcjCBUQKFAJAZPQuHBOnb3kgfkJP/aKb9tRW9sDBkxk/J2am6rKlG8zr1Gs46Tzay88RPoDOMPS8HW95y2Fy//aRhAIA49CwEAGx/G3fl2qWrslzTs3kG6IHT15bkxiUChRgyT27KtSsECpHXHinqYIw6V77xFiBCT7KzfJ1AYb9lL4dX8qxaldqdq3KNQCEAZEbPwiFB+rY30gcAAAAAAAYBPQsBAAAAAAAAGAQLAQAAAAAAABgECwFsOR5BBgAAAABgeyBYCAAAAAAAAMAgWAgAAAAAAADAIFgIAAAAAAAAwCBYCAAAAAAAAMAgWAgAAAAAAADAIFgIoKfG5hbkwsXNn7Pzx2TM/g0AAAAAAPQXwUIAPVSWYsG+tAqFKTk+N2F/AwAAAAAA/USwEEAPvZKVKwty+ZL9ub4qDfsXAAAAAADQfwQLAfTPxro8b4g03ry2CwAAAAAAQD8RLATQP6Ux2V+oy/Onr+wCAAAAAADQTwQLAfTPnqIUGlV5tmF/BwAAAAAAfUWwEEDfjB2oSKO6LsQKAQAAAAAYDAQLAfTJhFRGRRp1HkEGAAAAAGBQECwE0B+lPVJQ/41OnZKxkrcIAAAAAAD0F8FCAP2xcVdu36lKo1CR42cW5MLFBTl7tGz/CAAAAAAA+oFgIYA+mZDDUxXTu9DHI8kAAAAAAPQXwUIAfTE2NyOjBZHG2pLcuL4gly8tyOIT+0cAAAAAANAXBAsB9IGd3GTtqly791g2mA4ZAAAAAICBQLAQQO/ZyU147BgAAAAAgMFCsBBA7+0pSkHqUn9tfwcAAAAAAAOBYCGAnisVi+rfutR5/BgAAAAAgIFCsBBAz+3eXdTPIMsb+zsAAAAAABgMBAsB9Jg3uYk0XgsdCwEAAAAAGCwECwH0TmlCpudnxMQK3zBgIQAAAAAAg4ZgIYAtNTa3IBcu2p8zM3JIT4MsVVm7x0zIAAAAAAAMGoKFAHqqUVuV5es3Zd3+DgAAAAAABsdbE++9/5V+MTKyT16+fGEWDiPSt72RPgAAAAAAgK1Hz0IAAAAAAAAABsFCAAAAAAAAAAbBQgAAAAAAAAAGwcIhMezj3ZE+AAAAAACArUewEAAAAAAAAIBBsBAAAAAAAACAQbAQAAAAAAAAgEGwEAAAAAAAAIBBsBAAAAAAAACAQbAQAAAAAAAAgEGwEAAAAAAAAIBBsBAAAAAAAACAQbAQAAAAAAAAgEGwEAAAAAAAAIBBsBAAAAAAAACAQbAQAAAAAAAAgEGwEAAAAAAAAIBBsBAAAAAAAACAQbAQAAAAAAAAgEGwEAAAAAAAAIBBsBAAAAAAAACAQbAQAAAAAAAAgEGwEAAAAAAAAIBBsBAAAAAAAACAQbAQAAAAAAAAgEGwEAAAAAAAAIBBsBAAAAAAAACAQbAQAAAAAAAAgEGwEAAAAAAAAIBBsBAAAAAAAACAQbAQAAAAAAAAgEGwEAAAAAAAAIBBsBAAAAAAAACAQbAQAAAAAAAAgEGwEAAAAAAAAIBBsBAAAAAAAACAQbAQAAAAAAAAgEGwEAAAAAAAAIBBsBAAAAAAAACAQbAQAAAAAAAAgPF2qVxe0C/effcb8vnnvzYLh9Gwp2/7Kcv0/P8lf/GDsnz2YF1e26VAktLR8/JXf/lDKX22Ik+pMDn19/gbmzsv//HPfygHy7+Sn/1iwy4F8uK6gsE23Ncxjj+4474AAAYPPQsHUemYnL24IBfmJuyCBOOn5EKa9w2kPVIsqP8adXnjLUCEblRcuHhKxuzvO93u3UX1b13qtEC6oI/Hnzq/TY7qshQpFPZIybxCrw3n+YXrCgbbdruOZTtPcPztdM7XFe4LQsbmVNtOt++iP/Pn5axq821V/tDuABBFsHAQbbyWhv5/9GCbE/aEzJ6oqP+rsnzrsbdoOyntEX1PKY3XwveHccpyoKJunLjptspeI0Q3sqgw+fXz+NtYl+fmBFeXWnWd478vhvT8wnUFA227Xccynic4/na4HNcV7gsC/PNEjEJRCqMzcnp+KwJ6tDsAtCJYOJAeS7Wm/69IZdwsaDE2NyOj6v/anZuy7i3aVkoHK+amsvZsGwY6e8L/hp6bbqM0JvtNhXm6Lev7oOnv8fdKVq4syOVLH8vivVd2GXprOM8vXFcw0LbddSzbeYLjb6fLc13hvqDJP080VuXGJZ0nmz837qx6nUkKFZk8Wtavuoh2B4BWBAsH1Pqzqvm/UIy5GIyfkuMmUrgki0+8RdsNj5R2MH7QCwZz0+3ZUzSNkMYbKkw3cPztcEN6fqFeY6Btt+tYxvMEx98Ox31rd9jzRFzQbuPJXbl2x7YPd+8x/3cN5QcgxlsT773/lX4xMrJPXr58YRYOo+2XvgmZvTgjo/qbpSt3AxcMu1w/fnwpoVdhqSxjH82a8T/MBUdrVOXR6oqsPIn5xk6PkXhmSgq1Jbkc+0izHrT6nBwqtNlmJtHPU/t7dFomJ71vpbWG2pfbal/iv91S758Lp69RW5W1+3dlfc8puXCiKI+ufywrZuWU+94hD0rjp+TklNq/ZobWpbb2QB7eS9rHrFS5zh+R0YK+2e4kIS1Zy92Jzc+Gyqf7ItMfHZFDepwZvZ2lm7Ki0tGyrCWDspSfR4+jcnqyKLU7CzEBcr+M1eesXZVrMd9Kb335BWVPX16l0oQcUPm+P7LN27eC5w5fzuMvaz3TY6uaIRMiWs5tybKlb9N2KPfS+DE5rPZx89ivq/Wq3npd28ntcH5JOler7Y7rRtFrWQ9tx14Lm+fsnPVacakv3rlJNstW1dXZmUBeqzxaVufBuLLsbf3MIqksItpdNwf6PsR+FtexiDznif4cf3k4XVcynwcDdc2ep9Lli+t6m1zzM32+5Kgvat9y3Rf0rBx6r/15Qok7VzqdP7twXwBg6DEb8sDakN8rT8v+vbvkd88/kRdfeEvH5ubNzWTtjroJjfn2Vt8c/OVf/EC+U9glu+wyY1dR9lY+kINvV+VnL35jF1rf+lC+Xymq6+z91r8Z35IPfnBACupCvPrTT8XuSg6Bz/tf35K//OsZ+c5IMbS/uwoH5Jtx+6oviPr9kfTtKozI/u+NSen3RtSN0Uv5+Y/9mfh+I19+fUy+O7JLGoF8DFMX0f9jRvbvqqtGwT9E3qMvpvPyx99R+xfOUCmMHJDvfvtrUutGnpTGTcAgtIkkMeXgVO5O/LJ7S0p/cljeV9sz1HZ2fb0sH6hl+wPL9n79V/IwOKtd5vLz/MGHP1SfW5fnD6NlqMvn/6P2Qx8TV+X//e/Rm8QelZ/PMX3u1A3v3H+Q//1Pvid7Y7b53SNj8nZLvXc//lzqWenb0+b4i2r8/J/lfsc66ZI+bZuUu8rPvzrxXSmEdlJ9hr/eZy/l6esuHLfb4vzyjuz7ww9krzoPPw/OpDr+Z/IfT6jzyu7fhcqsdPTfyx+relVb/Ts7q2yO60qO+uKdm7yyfUs18v7q5PfC5anT03K897h+ZpbluqkakVf+ayh9g38fwnUsVq7zRH+OPzdu1xWnel36I/n+1Ih8qev1l3/k1Zs0+eK6nuGanxnzJUd9yXNf0NNy6IPk84Rlz5XSeLZ5XnI5f+a8LwCwM9CzcID53y41v2VWF0jzTVzSN0f+35XwN2Rl9VnT6rP03+oZv+1W9I1x22+sMrKfpwfRNYP1qovQZs8LfbNyrvmYdXh76gbI9KpUGqtqnc2eN/rm4aRKu/mGMPrNpM2XpG/rk//ub89+G/tU5af/oaUJmZ6ZsYHbhHxzZreb9htWx3J34tcF/Vpt64beVmD7LctCZehYfiodrd+IKs19UeVzZ1GVQUwDq6fl55o+V36+6NdeHjxUeeB9rjqO/G/No9tzPf66Vc/s53TOd8f0bZty99MXrb8qP8en7XpdOm5D7P6mrYfdKveO4o7zQB0I7a9dLoFlua8rLvUlsB+rRTmt8snk0X3/M9R2xyW+R2TP6qcjW+6Zr5uO9aWn9yFcx1LIeJ7oy/HnInBOsXme6rriWK+bx0koX1ZUvuhybpMvrus556djvjRlrC9RNr0dy7nX5dBzCeeJps1yCuZV/vNnzvIDMLQYs3CAbTytmoFsvXEp1IncXCDVBSTpRG8voPpica15AdXUBf/eTbmxpi6SUpT9B8PjIHYcZ6bL4+z4g2AX1AVbVEPj8hX/hlJ7Jev37QC+Ef6kLuZiri5mm+vocTxuNsfxaBnn43U9kI9R6sI7pfJNXSBvRxpE3vZUfqubjkX92EbwQzcey8qSt5+x40rmkWlGQfdyd9IcS0XdUPjbsvkbWmYF64xz+cUNCh9oYOmbwtYGVu/Lzzl9jkpHZ70be53velDw5o29po4jVfbXri+Zxmxwe27HX/fqWanY4XxjuaZv25W7arToRtkmlU693qWrJg3dDRQqg3x+iTLHvmq41rwG3m672D8nNAKzZua7rrjWFzsgvFTk5AndULvq5VFwu5FzU6/rp7MnT0XPsxZ/3bT1ouW6uU3uQ7iOdZZxZuP+HH/ZuV1X3Ou1d72L5otfzsn54rqea366Xm+bcs6Ene6+oPfl0Hv+JCPRGYn1l4jHZNYP6KpyehgICuY+fzKTOYAEBAsH2ca6PNdXr9GDMn30iLlBTZr9uGT/rr/lT/pWLhx89Nkp+lWD9VnCFWLsgHdxbtRbb2RdeBc1e7GP67FghS5q6qZ60iTQu5Fvp2VwXj8fC3uk5C1p8m+QaqvRG6AJqZgWQUWOn1mQCxdjfsxN/hawF/U0gwy7l7sb/4YrlF/+/gaW+e9r1pk85Re5ydG9N7y8j/n2uKnH5ZcnfU4m5PCkzmPVKFAN1oRD1zQOgo1ZzeX46149K8sB8/hM8vnG45q+7VTur6RuMmxKTs5NSCl6ctINmLZ55GiAzy9RYx+pslJ1pRpuNXnL1fH//Olm/XW6ruStL34DSzVAG3e8BnZ7fbyuZPba1s+466a9H4lcN7fLfQjXsRQynCe0vhx/mbldV/KcBzfzJaGHrhXOF9f1XPPT/X6iKWN9CUt3X9CPcug5O8mIvi84HSq7c3L6xJSM6kxW+RQupy6cP3OVH4BhRrBwoL2SZ1X9LVlFDukLeS159mPvQhhuPKXSnKI/6dskexFq941VJv7nqQZgQlr8b6iDF7XmskBPkijvxj5uP/1GeaBnimFvkOLy1b9g94F3UU+X387l7sjfXnDf4vbXe99mGecpv2CDzTxqYb9Zbntj2ePyy1c/HfhBimAvlVTcjr/u1TP/W/MO3167pm+blfv6rauyXKtLYXRGTpvG3XmZPTrREpzppkE+v4R5DV+dt+FYoW0Q1x4EAixu9Tp3ffEDQG0aryF9vK5k5183K3IgWCFLx+RkwnXTub70+D6E61hnWc4TfTv+snK8rrifB4P5Er9ubL64ruean873E5uy1ZeodPcFvS+H3vPPE63q0lDnikd3bK9Iu9TowvkzX/kBGGYECwec/y2ZPok/up/0jU/gQtDuShv5ZtuIWxbiX8Tbf+OXXlIX+01xN/KdbxLsN5MJefDmjRd0rYx7v2ve4xrx+epfsPW35Jcvtf9p9y1ldinL0shR7k78b62D24vbB/u+QBnnKT9/3cLUghmTRY9Ts6wfNSlMyeFAeQb1uvzy1s/MnMvU5fjrYj2zjZmO3147pm/7lfsrWb/1sVy+flXVaX2uL8ro5IycNkHDLj9WaAzy+cUGpyyvF0lV1lQ5bdT1+duKrUNu15W89cVvYKVtvPbvuuJm/Zl+pLYoxWYnnbJMz+ieSdWY4VBy1JeOdaib9yFcxzrLcp7Q+nP8ZeZ0rspzHnTLl57nZ+5zeNb6EpHqvqAf5dB73n7EleHHcu3KzfiZnnOfP3OWH4ChRrBwuwj1onBhx+ZTgt+c+TcXSd+mlfxvKjv1BErL/wYzzTdgmTbY/mbAb2w2x2mxjxM11hbb5mvvx42y6cjxDW9YfLk7if32OWZ/O5ZxnKTy8xt26mZI/V334NHj1Kzfe2DG0xqdOta2F1bvyy9J+/rZM1t2/KWrZ975ZutvyLdduW/YMaF0o+D6ktQaOmg4K9Nd72I4wOeXEBt0Ce1nUYolu71GeLymvPXarb64N7AGp3524I/36+/v+LQZtqOxtuJYfwbgPoTrWAoZzxN9Of4GScJ5sGO9TcgX1/Wsga8vEd27L+hyOfScvx/JPXTj5D9/dvu+AMAwIViYyYTMznvjR5zdkl4frfyu8e2/cfN7ZIR7zgUFBy9OOyhu8FEZ928cwzqnJ+lmWwv2cAjSM5nZQceTLoahwdrVDYXtHaF7rcRpBhcrY4k38aXxcvcfF/RvulNxL3cncd9e2puQ0LLEbzkdyq+ZH3pcp+C34Y/lYZteGf0pvxz1Myu/ET85LWPeklal1sdZ3Y6/7tWz5vmmUyY4pm/7lLu6luhxCu1vIRuPZXE12qOrSwb5/BJkglIxvb73tE5sorleV/LVl3bXqnh9u664suP9evu7GaiNTgbm2Sb3IVzHOst0nlBv78vx58DpuuJer/0gTtZ8cV3POT8dr7dNGetLVLr7gt6XQ1gv2n/Zryla7vNnzvIDMNwIFmZgbgTtGbXdxbib2l0EgrzHhURGT5yXWXUz0KQu8NNz6mKhxxjSN6qxM5kV5dBHgRsBtY6+KJpp+PUslErSN1ZZdUyPf9MeaQx6jxHr9J2SsUDG+7ODHTd36G0uhsHB2m3viKTJYgwbXNQ38afnj4W36efpiXOJjw/lNnpEpgPl6G1T7Yf93Zev3LOJ+/Yy7TLn8vMbbDE9QDfa9crocfnlr58Z+ZP2qBvn4/N6m8Gy143W83LhzIycjNzUuh5/3aln/rfmFZkM7FdpfCKUZ4Zj+rZLuZtHbPU4hfNefoaSr/Zz1vaO2DIDeH4JqujHe2MemSqq5XFf8rjW61z1xW9gZfkCoN/XlcxsA71QlAO2IR6d1CRoO9yHcB3LIOV5oi/HnwvH64prvXbNl57np+v1NiplfQlLf1/Q63II6kn7z+6H25fKXTh/OpUfgGH31sR773+lX4yM7JOXL1+YhcMof/rKMq1uBs23VlptSS53mA0vP3+bVVm+1CawZY3NLTRvVlupC2jcjHt6Rj5/oO0Q7/3PDuoLsLSZrS+Lzukp6W/B9MXtzkJk8HR14btov7WPUo3K5WpRjnfYTy9/6tJo6Bv3VbnRbtY3LTFvPHrModuqDuTOlpBIPYtozRfHcnfg51/w87xlwfJMKmO38kuuDx7/7+axrmhvl56WX/76mVnpmJxtM1Nko7aq0hes43mOv+7UM//zo2LLN3P6rG1S7kl50aT2U8+42p399A3u+UULbiu0L8Eybbn25qvXzvXFrhd77mmnp/Uzv1A9bcn7Vk71JTFPvPd38z7E2z+uY+1lOU/06fhz5XhdyV6vXfOlT/nper01stSXVn56ouLW6105BEXSl+I86KLzfiTIff7MV34Ahhs9C1N7JSurdrIRfVOYONlIF/kzXKUcR2L91oLcuKP20eyk1ahLbU01Oi8lXCSe3DSzcW4Kv7/5jVz8HUJGnbvYJ38D+FgWry/Jo+C+6rTduSo3rty0n9d+P71vJYtS0I+3pekJo/LGGz8smD/eTdOyfpSo6zfomqpnV66G06noWdD0NuMu2E7lnlncmC52Wag8k8rYrfw6fSPs98qIfXymp+WXv35mtnFXrl3yZtMNFr0+P+kZ86613NjnOf66U8827i3Gnm9iH2HNnD5rm5T7xj09sYm3bihL/fV31PklKnnMptZHyfLVa9f6EtfzLJW+XFfcbU6ypuqI2rdOBvs+hOtYOlnOE/05/pw5Xley12vXfOlTfrpeb43s15WgLPcFvSuHoN60/zrvR4Lc58985QdguNGzEAAAAK1sjyPJ2oMSAAAA2xo9CwEAABCmx73SjyYmTmoCAACAYUWwEAAAYKcLTGygJ+04e0aPz5dy2A4AAAAMFR5DBgAA2NHiB7lncHsAAICdiZ6FAAAAaGJwewAAgJ2NnoUAAAAAAAAADHoWAgAAAAAAADAIFgIAAAAAAAAwCBYCAAAAAAAAMAgWAgAAAAAAADAIFgIAAAAAAAAwCBYCAAAAAAAAMAgWAgAAAAAAADAIFgIAAAAAAAAw3i6Vywv6xbvvfkM+//zXZuEwGvb0JRmbOy//8c9/KAfLv5Kf/WLDLt3OyjI9/3/JX/ygLJ89WJfXdinChq/c3ZWOnpe/+ssfSumzFXlKhUEGHEfoHf/aNqbOVS/Vueo3djkAAADQe/QsHGalYzI5WjQvC4U9UjKvOtPBlQsXT8mY/X2w7JFiQf3XqMsbbwGihrLc3e3erfOiLnUChcjC8TgCnIxPyyF9bZOijB7YYxYNkmG9PgAAACAewcJhtrEuzxv6RV1q1XVJ1y+mLAcqqoE8qMG40h4x7anG65Tp2YGGsdydlb3gsg4WUmGQhdNxBDh6XRdT3VR9e3T/sXk1OIb1+gAAAIAkb0289/5X+sXIyD55+fKFWTiMhj193TMhsxdnZLS2JJdvDVqDxevdcHqyKLU7C7L4xC5EFwx2uTsrHZOzZ6akMGzpAoCeGdLrAwAAABLRsxBh4wdlVP1XezaYDQIeKd0iA17uzvYUTU/UxhsqDAA4GdbrAwAAABLRs3CYjJ+SCycq9peAxqrcuHI34TG6CZmdPyKjBW9srvaqsnzppqzb37LTA7ifk0OF6OeUZWxcj9H0WtafvPIWGdHeDNH11XpHp2VysuI9mqw01Htvq/cmPTJYUnl0ckq9319BP2K49kAe3muzjunNKPLo+seyot9UUvs1E8izhtqfJbU/MR/gsr3MBr7cNVt2DVWW90WmPzoih/R4cCrvHqm8W1H707KsZcdVec/NmnHkNst7Vdbu35X1PToPiptlZLXvierXJ/U5a1fl2r1g3fM41ZfxY3JYrbOZt3W1n1VvP7tW6JvybC9b+gJlaI/HLMdf7/bTkdNxpOXLl2yi58AE7XrUltT+fRQ+jswxt7oiK6Hzr9Wxd277fcpz/swmXA5efZtS2/H+2lDbWWuzHef9zJqfytjcghzX0bcYSeeiINfjoaTSdECdZ/dHzqG3b0Xrd6+vDwAAABg09CwcIqVi/I19o914W3oMwFQNAmWrxisan5bjJ2bk+NRYaBKB0lHVWFH/b/ZmCExuohuwF8/J8UCDXCuMzsjJo2X7W5Bu/CzI6RPBBpZWlNHJGTk9fyxxAoNmb0aVibpBeeHMTLgRpT+vJYPdt5fV9ih3W3ZyUGZV/pmgoFaoyP6PTsnZyLJDH014r31+eQcb5EphdEqOnzkvswd0kKd1XMLknqi6fHSAQ9WvO3GNc8fyU4340yd0gCKYt2qf/f0cj6ubOThvzyF9pTHZr95remlmPf56uZ+OnI4jLU++ZPZKnlXr6v+iFBMTXpbpmSm1/aosR4J7Osh09kzrcWSOuRPn5GzcPnbsndt+0im386cDvxzU/kzPnbf1zf5NKag06ro2nZBvLvvplJ+qfLxzYbxGvV2g0PV40F+0qDyx59ngqvoYPH0xki+DcF8AAACAvqJn4TBTDRndUyb9+H6qIaJ78nXsSeMqrgeKv0y9DG3XLpfAMtvDRTdORDVkCqGeHroxpBtt6mVLDxibLtUQNL0vnj6WDT9xpQnVsFYNKLX9tr3P9H6sFk0jzfQSuu9/htruuMT3iHTaXhcMXLkrtuxMI1Xl3w1VPht2P43oslAZ+vmpqH1cXtrsiWZ62Kj3m89t2f+4+qY090WVz51FlUcxgUKn8vO3F/3cstrPabuf9Zbej+5ct+eYPls2jdDxt6LKQm+33fHX4/3slrTHkXO+OPK3l9QDLenvdrkW7umoyuHotJye9ALu0XLwety1GSfWP55i0+dy/nQUSJ9Oh65rD9Xnms2o+jKr6osJHnZrPx3zM4nX27Dd+/Oel/TrSL7odPm9YBPP/3a7W3l9AAAAwMChZ+EQ83rKxPWqStCPmYZNbxDVgKl5De3ddnGzl0igV0/poBcUMj0eVEP48pXgI2GvZP3+qp1NMmxsTjewVANeNcIW9WNawcRtPJaVJW+9QjGuF4jfI64iJ0/oBrNqgOtGYXC7kYZuvu3lN5DlbnsnmYCe36j2Z/8MLrOCvZi8/FR0I181VoOPAW48uSnX7lS9X6L7b+uQ1J7GBgp1o7w1UNiF8mtUTWN8k2qY6/28dNV8ZprAQSYZt+eaPr/nXfj487ebfPw19Wg/uyXtcZQ7X7J68lRq6r/Cbj10Q9SEzOoAljqmbocCiXa5ooNJ5hxmftNUOdy7KTfWvB6L+w+G87PjOLFtex5mP3+68svBnE8uecd2czOqviza+iKFPTG977Lup3t+xus8a7vzcXt01gsUxuWLTpfa12vXl8yXMLGb7sd9AQAAAPqOYOHQKsuBimo8qQb6s7R3+LbR18tBzMc+mjI9caqR55jMctVwev50s4HmNVpt46zNmE7hRuuEVEykST+CtiAXLsb8+D3e4vgNpUJRGne8hlZ7ObeX22CWu9+Qr60GGqT+dgPL/Pc1H8UrHZNJnZ82oNhOy/5Hghi6F6KX9+1777iX3yupm9b6lJycm5BSS0RCNczTlkkqLttzT9/m8ZfQo81qDRr1dj+7I/1x5J4vrl7b/GwNejWHbggeZ4q/XPc2TOolufG06gWbQkFIG8Rqkw9jZggA9Za4x2cznz/d+UHNR0lBr43XyUHbjPvpnp9J2j/K7X48TMjhSZ0vVVlu1ytw43HyuakP9wUAAADoP4KFQ8tvfKTvDeA1+jL0SMvNawDp3oPhBpJtGNUeBAI6fs+LqlQTGmd+z8NQo9XO4ujMDzi1aRSG5N1eboNZ7nG9k+K2671vs4ybZdpm3LikHmDBwKN5lNL2BGobAMpZfuu3rspyrW7GqDttGvXnZfboRNfG1YvKvD3n9AWPv/hASuzxZ/VuP7sl7XGUL1/c+MHXihwIZmDpmJzUgaHaUsu5yj/+gl++pOL3zk3Mh0CPuLjzR9bzp7PAfqQ98QVl3E/n/Exig5WJ5znX48EPggZ7V2fU+/sCAAAADAKChcPKNi7S9wbI2dhKxTZyLa93RlXW7r2Sjbp+ZMuK3fdOPS/iA1LNHm13FuTypfY/cb2C/IZS2kZh3u3lNpDl7veKCW4jbrv2fYEy7twotz3AYvbfX7cwtWDGXNPjii3rRwMLU3J43HtPVP7yeyXrtz6Wy9evqm3pnkV24gETHNuKx2Wzbc89fW7H36Ze7WeXpD6O8uaLm/Vn+tH7ohSbndbKkjSpSepjPNIT14hbFuKnPz4An/X86c7uR7ugmB84iwl8ZtvPHPmZoFNA2fl4yLAP8XpxfQAAAMAgIlg4pLzGRZYGaorGVlfZIE9oe3qGT9XonVINt8aqPAz28GjT0PO0b9S4jWvm3lDaqnHUOhnIco/t3RKz3Y5lHMcPVkSDNX6AUjWW1d91jyE9rtj6vQdmvLfRqfaz6OYuv41X3lhgugF/fUlqDR0cm02ciTW3jNvLnD6/Z5Pj8de01fvZJamPo27lS1Z2vM9m/oxPm3HpGmsrjsexPe8qwYCVH6RKDGK1TX8PA012P9oFxbyhLdQppyUAvBX7GZ+fSdIGlHt/PPT6vgAAAACDgmDhkGo2PtI2fvxATa+Yxm1dHt2PNNz2tE5sovk9L5J7+sQHjfwei4XKWGJwqDReTvhbUiAqWb7t5TeQ5R7XuyWucZ/YCybYgypIzzRrJz+JBiua6dLjEwZ72zyWh216F7qX34TM6vH47G8henKF1WhPsLzctueavmbPpozHX6/3s1vSHkfu+ZLTxro8b/j5s/kFS3hSE5/fo7silaQetYFJMIJf0rQLYgUf7Y8P0m1R2mN0CmrqmYvNjNSBIQ42Zd1P9/yM1zlY6Xw8+EHlyWkZ85a0KrUZDqDX9wUAAAAYGAQLh5Lf+KjIZOARv9L4hIx1al2PHpFp1ejwlVRDYnruWHJDw1FFP/YV8+haUS3Xj9LpR5ODOva88INP0TGf7MyhOjh0el6lI5B+L226wXsu/rFUl55uebaX22CWe1xDPu2yN2+8RvLoiVPhvBw/JrPz52wAQK0TDVb4gce1xZaJTDba9S50LD/zSL0ej2/+vMxGG+1qvVnby6hbnLfnmD7X46/X+9kd6Y8j5/NSbv64hUU5YANT0UlNgrzHlvVx5JVDk5+XZhKMpMlBinLoo0BASZfbvPdov5nFXokN0rmcPx155aDTtyBnQ2Nh6i8UzsuF5szFN1t7yDnsZ778jGiOC9kmWOl6PNigsq7Lx+f1OTS4rzZvzszIyZihAEJ6dF8AAACAwfHWxHvvf6VfjIzsk5cvX5iFw2jY0xdlen2YBkuYHvMofgD3skzPn/N6Q8RIXi+bsbmFZoAn9Jl6plp/AoraklwOjbvl71tVli/FNPYUP72x+xn87Bh6LLvbanstjTq7nnmENcu4aK7b64JBLHevzHUPv80ZiL1lwfJMKuMJmb1oew9GNdR7q0U5Piktsxu3rQ+K//fYsnUsv6S8b1Lr6Rmdu1XuztvLnL58x1/v9rN7kvY5nL6c56WcQvuo8iJ8zmwVPPe2Ch+fTYll4L3/2UG9D63Hn2HXzXz+zMyWg9onPRamHnYgTuJ+OO6nU37GSbt91+OhdEzOtpk5vFFbVeslBTW3/voAAACAwUTPwiG1cW/RzD66qS61taU2j0S9kpUrV+VRaB3VkNABmetb0SBIntW49ZG+zo+Jte3h8+SmHR8tkjbVSNJp02PZxTWUOj7alsRxe90weOUe94idXRYqz6QyfiyLKi9D+6feU7tzVW5cuWnfG/xsT6ceX37vwtjH8xzLb+OensDD21fTmcdq+Pvb5XJ33l7m9OU7/nq3n92T7jjKeV7KaeOpnihGU8eqyotO1m8tyI07ap1QIXjpunEpIbClyiAuH/z3N9MXs67z+TMzvxweyDV1LtP7G0qiX18SAnGu++mUnzFSb9/1eNi4K9cuteaL/rLlkTr+riUGCrVe3xcAAABgUNCzEACA7cb2GJMt77k34LZ1Pvg99zL0RAQAAAB6gJ6FAABsJ3rcQP1oaeKkJjuHP/nV1vdg3ALN8Qpbx+8FAAAA+olgIQAAgywwMYWe3OfsGT2OZ11STaAx5LbyUe/uKcv0XOskTf5Ygt2fAAcAAADIh8eQAQAYWPGTTDC5hObnTfIkMwOh3eQkjVW5cYWgLwAAAAYLPQsBANgmmFwiqPMkMwPhyU25cWdVanGToRAoBAAAwACiZyEAAAAAAAAAg56FAAAAAAAAAAyChQAAAAAAAACM5mPIAAAAAAAAAHY2ehYCAAAAAAAAMAgWAgAAAAAAADAIFgIAAAAAAAAwCBYCAAAAAAAAMAgWAgAAAAAAADAIFgIAAAAAAAAwCBYCAAAAAAAAMAgWAgAAAAAAADAIFgIAAAAAAAAwCBYCAAAAAAAAMAgWAgAAAAAAADAIFgIAAAAAAAAwCBYCAAAAAAAAMAgWAgAAAAAAADAIFgIAAAAAAAAwCBYCAAAAAAAAMAgWAgAAAAAAADAIFgIAAAAAAAAwCBYCAAAAAAAAMAgWAgAAAAAAADAIFgIAAAAAAAAwCBYCAAAAAAAAMAgWAgAAAAAAADAIFgIAAAAAAAAwCBYCAAAAAAAAMAgWAgAAAAAAADAIFgIAAAAAAAAwCBYCAAAAAAAAMAgWAgAAAAAAADAIFgIAAAAAAAAwCBYCAAAAAAAAMAgWAgAAAAAAADAIFgIAAAAAAAAwCBYCAAAAAAAAMAgWAgAAAAAAADAIFgIAAAAAAAAwfu/C/DEp2V8AAAAAAAAA7FQi/3+DJTko2MynTgAAAABJRU5ErkJggg==;" vertex="1" parent="1">
          <mxGeometry x="450" y="230" width="1171" height="390.94" as="geometry" />
        </mxCell>
      </root>
    </mxGraphModel>
  </diagram>
</mxfile>
